<svg width="60px" height="60px"
  xmlns="http://www.w3.org/2000/svg" xmlns:xlink="http://www.w3.org/1999/xlink" version="1.1" x="0px" y="0px" viewBox="0 0 100 100" style="enable-background:new 0 0 90 90;" xml:space="preserve"><path d="M50,5C25.1,5,5,25.1,5,50s20.1,45,45,45s45-20.1,45-45S74.9,5,50,5z M87.7,41.1c0.2,0.7,0.3,1.5,0.3,2.3  c0,0.3-0.1,0.6-0.1,0.9c0,0.3,0.2,0.6,0.3,0.9c0.5,1.4,0.7,2.9,0.7,4.5h-1.8c0-2.8-0.3-5.6-0.9-8.3L87.7,41.1  C87.7,41.1,87.7,41.1,87.7,41.1z M53.4,17.4c0.3,0,0.6,0.3,0.9,0.3c0.4,0,0.7-0.2,1-0.3c0.7-0.2,1.4,0.3,2.1,0c0,0,0.1,0,0.1-0.1  c0.6,0.1,1.2,0.3,1.7,0.5l-1,3.6c-2.5-0.7-5-1.1-7.7-1.1l0.1-3.8c1.3,0,2.6,0.1,3.9,0.3c0,0,0,0,0,0c-0.2,0-0.4,0.1-0.4,0.3  c-0.2,0-0.3,0-0.5,0C53.5,17.1,53.4,17.2,53.4,17.4z M63.7,24.7c0.4,0.4,0.5,0.9,0.7,1.4l-0.9,1.5c-1.9-1.2-4-2.1-6.2-2.7l1-3.5  c1.8,0.5,3.5,1.2,5.2,2c-0.1,0.2-0.3,0.4-0.2,0.6C63.3,24.3,63.5,24.5,63.7,24.7z M65,28.4c0,0.1,0.1,0.2,0.2,0.4  c-0.5-0.4-1.1-0.7-1.6-1.1l0.9-1.4c0,0,0,0,0,0c0.1,0.2,0.1,0.3,0.2,0.4c0.1,0.1,0.2,0.2,0.2,0.3C65.1,27.4,64.9,27.9,65,28.4z   M35.7,68.4c-0.5-0.7-0.9-1.3-1.4-2c-0.2-0.3-0.5-0.7-0.6-1.1l0.1-0.1c0.1,0.2,0.3,0.3,0.4,0.4c1.3,1.3,2.6,2.3,4.1,3.2l-1.8,2.9  c-1-0.6-1.9-1.3-2.8-2c0,0,0.1-0.1,0.1-0.1c0.8,0.1,1.7,0.1,2.5,0C36.2,69.2,35.9,68.8,35.7,68.4z M33,62.1c-0.5-0.9-0.6-2-0.3-3  l0.9-0.5c0.8,1.4,1.7,2.7,2.8,3.9l-2.8,2.6c-0.1-0.1-0.2-0.2-0.2-0.2c0-0.1,0-0.2,0-0.4c0-0.3,0.2-0.6,0.2-1  C33.7,63,33.3,62.5,33,62.1z M30.3,53.4c0-0.1-0.1-0.1-0.1-0.1c-0.1-0.2-0.1-0.4-0.1-0.6s0.2-0.4,0.3-0.5c0-0.1,0.1-0.2,0.2-0.2  c0.1,0,0.2,0,0.3,0c0.2,0,0.4,0,0.5,0c0.1,0,0.2,0,0.2-0.1c0.1,0.7,0.2,1.4,0.4,2.1l-1.7,0.4c0-0.1,0-0.3,0-0.4  C30.3,53.7,30.4,53.5,30.3,53.4z M30,53.6c0.1,0.3,0,0.6-0.3,0.7c-0.3,0.1-0.5,0-0.8,0c-0.1-0.3-0.4-0.5-0.6-0.4  c-0.1-0.1-0.1-0.2-0.2-0.3c-0.2-1.3-0.3-2.5-0.3-3.8H31c0,0.2-0.1,0.5-0.1,0.7c0,0.2-0.1,0.3-0.2,0.4c-0.1,0-0.2,0.1-0.3,0.1  c-0.3,0.2-0.2,0.6-0.2,0.9c0,0.3-0.3,0.6-0.3,0.9C29.8,53.1,29.9,53.3,30,53.6z M26.8,53.4c-0.1,0-0.2,0.1-0.3,0.2  c-0.3,0.4-0.7,0.9-1,1.3c-0.2,0.2-0.3,0.4-0.4,0.6l-0.3,0.1c-0.4-1.9-0.6-3.8-0.6-5.7h3.4c0,1.3,0.1,2.5,0.3,3.7  c-0.2-0.1-0.4-0.2-0.6-0.2c0,0.2-0.2,0.3-0.4,0.3C27,53.5,26.9,53.4,26.8,53.4z M25,55.6c0,0.1-0.1,0.2-0.1,0.3c0-0.1,0-0.1-0.1-0.2  L25,55.6z M24.5,58.8c-0.4,0.5-1.1,0.6-1.7,0.5c-0.3,0-0.6-0.1-0.9-0.1c-0.3-0.9-0.6-1.8-0.8-2.8l3.5-0.8c0,0.1,0.1,0.2,0.1,0.3  c0,0.1-0.1,0.2-0.1,0.3C24.6,57.2,25,58.1,24.5,58.8z M63.3,30.5c0,0.1,0,0.2,0,0.2c0,0.1,0.1,0.1,0.2,0.2c0.3,0.2,0.5,0.6,0.7,0.9  c0.2,0.2,0.5,0.3,0.6,0.5c0.1,0.2,0.1,0.4,0.1,0.5c0,0.1,0,0.2,0.1,0.2c0,0,0.1,0,0.1,0c0.3,0,0.6,0,0.9-0.1c0.2,0.4,0.2,0.9,0,1.2  c-0.1-0.1-0.2-0.2-0.3-0.3c-1.3-1.3-2.7-2.4-4.2-3.3l1-1.7c0.1,0.3,0.2,0.5,0.4,0.7c-0.1,0-0.2,0.1-0.3,0.1  C63.1,30,63.3,30.2,63.3,30.5z M67.1,33.9c0-0.1-0.1-0.1-0.1-0.1l1.6-1.5c0.2,0.2,0.3,0.5,0.4,0.8c0.3,0,0.6,0.1,0.9,0.1  c1.1,1.3,2.1,2.8,2.9,4.3l-3,1.6c-0.6-1-1.2-2-2-3c0,0,0,0,0-0.1c0,0,0.1-0.1,0-0.2c0,0,0,0-0.1,0c-0.1,0-0.2,0-0.3-0.1  c-0.4-0.5-0.8-1-1.2-1.4l0,0c0.3,0.3,0.9,1,0.9-0.1C67.2,34.2,67.2,34,67.1,33.9z M70,33.2c0.1,0,0.2,0,0.3,0.1  c0.1,0.1,0.1,0.2,0.2,0.4c0,0,0,0.1,0,0.1C70.3,33.6,70.1,33.4,70,33.2z M68.3,68.1c0,0-0.1,0.1-0.1,0.1l-2.4-2.5  c0,0,0.1-0.1,0.1-0.1c1.4-1.4,2.5-2.9,3.5-4.5l3,1.7c-0.7,1.2-1.6,2.4-2.5,3.5c-0.1-0.1-0.3-0.1-0.4-0.1c-0.1,0.1-0.1,0.2-0.1,0.4  c0,0.1,0,0.3-0.1,0.4C68.9,67.5,68.6,67.8,68.3,68.1z M69.2,67.3c0,0.2-0.1,0.3-0.1,0.4c-0.1,0.1-0.1,0.2-0.2,0.3  c-0.1,0.2-0.2,0.4-0.3,0.6l-0.4-0.4c0,0,0.1-0.1,0.1-0.1C68.6,67.9,68.9,67.6,69.2,67.3z M64.8,59.3c-0.1-0.3-0.2-0.5-0.2-0.8  c0,0,0-0.1,0-0.1l1.3,0.8c-0.5,0.8-1,1.5-1.5,2.2c0-0.1,0-0.2,0-0.2c0.1-0.2,0.2-0.3,0.2-0.5c0-0.2,0.1-0.4,0.2-0.5  C65,59.9,64.9,59.6,64.8,59.3z M64.5,58.2c0,0-0.1-0.1-0.1-0.1l-0.5-0.3c0.4-0.5,0.7-1,0.9-1.6c0-0.1,0-0.1,0.1-0.2c0,0,0.1,0,0.1,0  c0.6-0.1,1.2-0.5,1.6-1.1c0.3,0.2,0.7-0.1,1.1,0c0,0,0,0,0,0c-0.4,1.5-1,2.9-1.8,4.2L64.5,58.2z M61.2,41.8c-0.2-0.3-0.6-0.6-1-0.4  c-0.2,0.2-0.2,0.5-0.2,0.8c-0.5-0.1-1-0.1-1.4-0.1c0-0.1,0-0.2-0.2-0.3l1.4-1.3c0,0,0,0,0,0c0,0.1,0.2,0.1,0.3,0.1  c0.3,0,0.6-0.1,0.9-0.2c-0.1-0.1-0.3-0.2-0.4-0.1c0,0-0.1,0.1-0.1,0.1c-0.1,0-0.2-0.1-0.3-0.2l0.6-0.6c0.6,0.7,1.2,1.4,1.7,2.2  c-0.1,0-0.3,0.1-0.4,0.2c-0.3,0.2-0.5,0.6-0.4,1c-0.1,0.1-0.3,0.1-0.4,0s-0.2-0.2-0.4-0.3c0,0.1,0,0.2,0,0.3  c-0.1,0.1-0.2,0.1-0.2,0.1c-0.1-0.2-0.2-0.3-0.4-0.4c0.1-0.1,0.2-0.1,0.4-0.2C60.5,42.2,60.9,41.7,61.2,41.8z M67.3,36  c-0.1,0-0.1,0-0.1,0.1c0,0.1,0.1,0.1,0.1,0.1c0,0.1,0,0.2,0,0.2c0.2,0,0.3-0.1,0.4-0.2c0.7,0.9,1.4,1.9,1.9,3l-0.1,0.1  c-0.1,0-0.2-0.1-0.3-0.1c0.1,0,0,0.1,0,0.2l-3,1.6c-0.1-0.2-0.3-0.5-0.4-0.7c0.1,0,0.1-0.1,0.2-0.1c0-0.1,0-0.2-0.1-0.2  c-0.1,0-0.2,0-0.2,0c0,0,0,0,0,0c-0.7-1.1-1.4-2-2.3-3l2.8-2.6c0.4,0.4,0.8,0.9,1.2,1.3c-0.1,0-0.1,0-0.2,0L67.3,36z M69.8,53.8  c-0.1-0.2-0.3-0.4-0.6-0.5c0,0-0.1,0-0.1,0c-0.1,0-0.1-0.2-0.2-0.2c-0.1-0.2-0.4-0.1-0.6-0.2c0.2-1,0.3-2,0.3-3.1h3.8  c0,2-0.3,3.9-0.8,5.8l-3.2-0.9c0,0,0,0,0.1,0c0.1-0.1,0.2,0,0.4-0.1c0.1,0,0.1-0.1,0.2-0.1c0.2-0.1,0.5,0,0.7-0.2  C69.8,54.2,69.8,54,69.8,53.8z M66.5,43.6c-0.2-0.1-0.4,0-0.7,0c-0.3-0.7-0.9-1.2-1.5-1.5l1.9-1c0.5,0.9,0.9,1.9,1.2,2.9  c-0.1,0.2-0.3,0.5-0.4,0.7c0,0.1-0.1,0.1-0.1,0.2c0,0-0.1,0-0.1,0c-0.2,0-0.4-0.1-0.6-0.2c-0.2-0.1-0.2-0.4-0.1-0.6s0.5-0.1,0.5,0.1  C66.8,44.1,66.7,43.7,66.5,43.6z M56.6,59.9c0,0-0.1,0.1-0.2,0.1c-0.2,0.1-0.2,0.4-0.3,0.5c0,0,0,0-0.1,0l-0.5-0.9c0,0,0-0.1,0-0.1  s0-0.1,0-0.1c0.2-0.1,0.4-0.2,0.6-0.3c0,0,0.1,0.1,0.1,0.1c0.1,0,0.1-0.1,0.2-0.2c0.1,0,0.1-0.1,0.2-0.1c0,0,0,0,0,0  c0.5,0,1-0.1,1.4-0.1c0.1,0.2-0.1,0.5-0.3,0.6c-0.1,0.1-0.2,0.2-0.3,0.3c-0.2,0.1-0.5,0-0.7,0.2C56.7,59.8,56.6,59.8,56.6,59.9z   M55.6,59.3c0-0.1,0-0.2,0-0.2c0.1-0.1,0.2-0.2,0.3-0.2c0,0,0.1,0,0.1,0.1C55.9,59.1,55.7,59.2,55.6,59.3z M55.9,42.4  c0.2-0.5,0.5-0.9,0.9-1.2c0.2,0.2,0.5,0.4,0.7,0.6C56.9,41.8,56.4,42,55.9,42.4z M56.3,41.5c-0.1,0.1-0.2,0.1-0.3,0.2  c0-0.1,0-0.2,0-0.3c-0.1,0-0.2,0.1-0.2,0.2c0,0.1,0,0.2,0.1,0.3c-0.4,0.1-0.6,0.6-0.4,0.9c0.4,0,0.7,0.5,0.5,0.9  c-0.3-0.2-0.7-0.1-1.1-0.1c-0.2,0-0.4,0.1-0.6,0.1c-0.1,0-0.2-0.1-0.3-0.2c0,0,0,0-0.1-0.1l1.8-3c0.3,0.2,0.6,0.4,0.9,0.6  c-0.1,0-0.2,0-0.4,0.1C56.3,41.2,56.3,41.4,56.3,41.5z M54.2,53.8c0,0,0,0.1,0,0.1l-1.5-1.5c0.2-0.2,0.4-0.5,0.6-0.7l1.3,0.7  c-0.1,0.1-0.2,0.3-0.2,0.4C54.1,53.2,54.1,53.5,54.2,53.8z M53.1,62.4C53.1,62.4,53.1,62.4,53.1,62.4L53.1,62.4  C53.1,62.4,53.1,62.4,53.1,62.4c-0.1,0-0.2,0-0.3,0c0,0,0,0.1,0,0.1c0.1,0.1,0.1,0.1,0.2,0.1c0,0,0.1,0,0.1-0.1l0.3,1.3  c-0.2-0.1-0.4-0.2-0.6-0.2c-0.1,0-0.2,0-0.2,0c-0.1,0-0.2-0.1-0.2-0.2s0.1-0.2,0.2-0.2c0.1-0.1,0-0.2,0-0.3  c-0.1-0.1-0.2-0.1-0.3-0.1c-0.3-0.1-0.7,0-1,0.2c0,0-0.1,0.1-0.2,0.1c0,0-0.1,0-0.1,0c-0.3-0.1-0.6,0-0.8,0.1  c-0.2,0.1-0.3,0.2-0.4,0.2l0-0.6c0,0,0.1-0.1,0.1-0.1c0.1-0.2,0.1-0.4,0.2-0.5c0,0,0.1-0.1,0.1-0.1c0.1-0.1,0.3-0.2,0.4-0.3  c0.1-0.1,0.2-0.3,0.1-0.4c0.1-0.1,0.2-0.2,0.3-0.3c-0.1,0.1,0,0.2,0.1,0.2s0.2,0,0.3-0.1c0.1-0.1,0.2-0.1,0.2-0.2  c0.2-0.1,0.5,0,0.7,0.2c0,0.2,0.1,0.3,0.2,0.3c0.1,0,0.2,0,0.3,0.1L53.1,62.4L53.1,62.4C53.1,62.4,53.1,62.4,53.1,62.4z M47.5,64.4  C47.5,64.4,47.5,64.4,47.5,64.4c-0.6,0-1.1-0.1-1.7-0.3l1-3.6c0.9,0.3,1.8,0.4,2.8,0.4c0,0.1,0.1,0.3,0,0.4  c-0.1,0.1-0.2,0.1-0.4,0.1c-0.3,0-0.5-0.1-0.8-0.1c-0.1,0-0.3,0-0.3,0.1c-0.1,0.1,0,0.3,0,0.4s0.1,0.3,0,0.4c-0.1,0-0.1,0-0.2,0  c0,0.2,0,0.5,0.2,0.6c0.1,0,0.2,0,0.2,0c0,0,0.1,0.1,0.1,0.1c0.1,0.1,0.3,0.1,0.5,0.1c0.1,0,0.2,0,0.3,0c0.2,0,0.3-0.1,0.4-0.1  l0,0.6c-0.1,0-0.1,0.1-0.2,0.1c0,0-0.1,0-0.1,0c0,0-0.1,0-0.1-0.1c-0.1-0.2-0.3-0.2-0.5-0.2c-0.2,0.3-0.5,0.5-0.9,0.6  c-0.1,0-0.2,0-0.3,0.1C47.5,64,47.5,64.2,47.5,64.4z M45.1,66.5l-0.2,0.7c-0.1,0.1-0.1,0.2-0.2,0.3c-1.5-0.5-2.9-1.1-4.3-1.9l1.8-3  c1.1,0.7,2.3,1.2,3.5,1.6l-0.5,1.6c0,0,0,0,0,0c-0.2,0.2-0.4,0.3-0.4,0.6C45,66.3,45,66.4,45.1,66.5z M45.1,66.7c0,0.1,0,0.1,0,0.2  c0,0,0,0.1,0,0.1L45.1,66.7z M33.3,45.2l-1.1-0.3c0.4-1.6,1.1-3,1.9-4.4l3,1.8c-0.2,0.4-0.4,0.7-0.6,1.1c-0.2,0-0.5,0.1-0.7,0.1  c-0.5,0.1-1,0.3-1.3,0.7c0.6-0.2,1.2-0.4,1.9-0.5c0,0.1-0.1,0.2-0.1,0.3c-0.4,0.2-0.7,0.4-1.1,0.5C34.6,44.8,34,45.1,33.3,45.2z   M35.2,50.4c0,0.1,0,0.1,0,0.2C35.2,50.5,35.2,50.4,35.2,50.4C35.2,50.3,35.2,50.4,35.2,50.4z M31.7,48.5c0,0.1-0.1,0.1-0.1,0.2  c0.1-1.3,0.3-2.5,0.6-3.7l0.8,0.2c0,0-0.1,0-0.1,0c-0.2,0.9-1.1,1.5-1.2,2.4C31.7,47.9,31.8,48.2,31.7,48.5z M52.4,55.4  c0.1-0.1,0.2,0,0.2,0.1c0,0.1,0,0.2,0,0.3c0,0.2-0.1,0.4,0,0.5c0,0.1,0,0.1,0.1,0.2c-0.1,0.1-0.3,0.1-0.4,0.2  c-0.1-0.1-0.1-0.2-0.1-0.3c0-0.1,0-0.2,0-0.3c0.1-0.1,0.2-0.2,0.2-0.4C52.3,55.5,52.3,55.5,52.4,55.4z M51.2,58.6  c-0.1,0-0.2,0-0.2,0.1c0,0-0.1,0.1-0.1,0.1c-0.1,0.2-0.2,0.4-0.3,0.6c-0.1-0.1-0.2,0-0.4,0.1c-0.1,0.1-0.2,0.2-0.3,0.2l0-0.5  c0.1,0,0.1,0,0.2,0c0.1-0.1,0-0.2,0-0.3c0-0.1-0.1-0.2-0.1-0.3c0,0,0,0,0,0l0-1.6c0,0,0.1,0,0.1,0c0.2,0,0.4,0,0.6,0  c0,0.2,0.1,0.5,0.3,0.6c0,0,0.1,0,0.1,0c0-0.1,0.1-0.2,0.1-0.4c0-0.1,0-0.2,0-0.3c0,0,0,0,0,0c0.1,0,0.1,0,0.2,0c0,0.1,0,0.2,0,0.4  c0,0.3,0.2,0.5,0.5,0.7l0.1,0.5c-0.1,0-0.1,0-0.2,0c-0.1,0-0.3-0.1-0.4-0.1c0-0.1-0.1-0.2-0.2-0.2C51.3,58.4,51.3,58.6,51.2,58.6z   M49.5,58c0-0.1,0-0.1,0-0.2c0-0.1-0.1-0.2-0.2-0.2c0,0,0,0-0.1,0c-0.1,0,0,0.1,0,0.2c0,0.2-0.1,0.2,0,0.3c0.1,0.2,0.1,0.2,0.1,0.4  c0,0.1,0,0.3,0.1,0.4c-0.1,0.2-0.2,0.3-0.4,0.3c0,0.1,0,0.2,0,0.3c0.2,0,0.3,0,0.5-0.1c0.1,0,0.1-0.1,0.2-0.1c0,0,0.1,0,0.1,0l0,0.5  C49.6,60,49.4,60,49.2,60c0.2,0.2,0.3,0.5,0.4,0.8c-0.9,0-1.8-0.2-2.7-0.4l1-3.6c0.6,0.2,1.2,0.3,1.8,0.3l0,1.5c0,0-0.1-0.1-0.1-0.1  c-0.1-0.1-0.1-0.2-0.1-0.3C49.6,58.1,49.5,58.1,49.5,58z M36.6,43.4c0.2-0.4,0.4-0.7,0.6-1l1,0.6c0,0-0.1,0.1-0.1,0.1  c-0.1,0.1-0.2,0.2-0.3,0.2c-0.2,0.1-0.4,0.1-0.5,0.1C37,43.4,36.8,43.4,36.6,43.4z M36.9,43.7c-0.2,0.1-0.3,0.2-0.5,0.3  c0-0.1,0.1-0.2,0.1-0.2C36.6,43.7,36.7,43.7,36.9,43.7z M52.7,46.6c0.2,0,0.4,0,0.6,0.1l-0.6,0.5c-0.2-0.2-0.4-0.4-0.7-0.6l0.4-0.6  c0,0.1,0.1,0.2,0,0.3C52.5,46.3,52.6,46.4,52.7,46.6z M52.4,43c0.2,0.1,0.3,0.1,0.5,0.2c-0.1,0-0.2,0-0.3,0  C52.5,43.2,52.4,43.1,52.4,43z M53.8,48.2c0,0.1-0.1,0.1-0.2,0.1c-0.1,0-0.1,0-0.2,0.1c0-0.1-0.1-0.2-0.1-0.3l0.4-0.2  c0,0.1,0.1,0.1,0.1,0.2C53.8,48.1,53.8,48.1,53.8,48.2z M53.8,49.7C53.8,49.7,53.8,49.7,53.8,49.7L53.8,49.7  C53.7,49.7,53.7,49.7,53.8,49.7C53.7,49.7,53.8,49.7,53.8,49.7z M50.6,57c-0.2,0-0.4,0-0.6,0c0,0-0.1,0-0.1,0l0.1-3.5c0,0,0,0,0,0  c0.3,0,0.6,0,0.9-0.1l0.5,1.9c-0.1,0.3-0.1,0.5-0.1,0.8c0,0,0,0.1,0,0.1c0,0-0.1,0.1-0.1,0.1C50.8,56.4,50.7,56.7,50.6,57  C50.6,57,50.6,57,50.6,57z M47.8,55.6c0,0.1,0,0.2,0,0.3c0,0,0,0.1,0.1,0.1c0,0,0.1,0,0.1,0s0.1-0.1,0.1-0.1c0,0,0,0,0.1,0l-0.2,0.8  c-0.6-0.2-1.1-0.4-1.7-0.7l1-1.6c0,0,0.1,0,0.1,0.1c0,0,0.1,0.1,0.1,0.2c0.1,0.1,0.2,0,0.3-0.1c0.1-0.1,0.2-0.2,0.3-0.2  c0-0.1-0.2-0.2-0.3-0.2c0-0.1,0.1-0.2,0.2-0.3c0.1-0.1,0.3-0.1,0.3-0.3c0-0.1,0-0.1,0-0.2c0-0.1,0.1-0.1,0.2-0.2  c0.1,0,0.2,0.1,0.3,0.1l-0.6,2.1c-0.2-0.1-0.6-0.2-0.7-0.1C47.3,55.5,47.8,55.6,47.8,55.6z M43.4,52.9c-0.1-0.2-0.4,0.1-0.6,0  c-0.1-0.2-0.1-0.4,0-0.5c0.1,0,0.1,0,0.2-0.1c0-0.1,0-0.2,0-0.2c0,0,0,0,0,0c0.1,0.4,0.3,0.8,0.5,1.1l-0.8,0.4  c0.1-0.1,0.2-0.2,0.4-0.3c0.1,0,0.2-0.1,0.2-0.2C43.4,53.1,43.4,53,43.4,52.9z M42.3,51.5l-0.5,0.1c-0.1,0-0.2,0-0.3-0.1  c0-0.1-0.2-0.2-0.3-0.2c-0.1,0-0.3,0.1-0.4,0.1c0,0-0.1,0-0.1-0.1c-0.1-0.1,0.1-0.2,0.2-0.3c0.2-0.1,0.4-0.2,0.6-0.3  c-0.1-0.1-0.1-0.3,0-0.5c0.1-0.1,0.3-0.3,0.3-0.4c0,0,0-0.1,0-0.1h1c0,0.5,0.1,1,0.2,1.5c-0.2,0-0.5-0.1-0.7,0  C42.2,51.4,42.2,51.5,42.3,51.5z M50.7,52.7l0.2,0.7c-0.3,0.1-0.5,0.1-0.8,0.1c0,0,0,0,0,0l0.1-3.3l0.5,2.2c0,0,0,0,0,0c0,0,0,0,0,0  C50.5,52.5,50.6,52.6,50.7,52.7z M47,51C47,51,47,50.9,47,51c-0.2-0.1-0.3,0.1-0.3,0.2c0,0.1,0.1,0.2,0.1,0.3c0,0,0,0,0,0l-0.1,0  c-0.1-0.3-0.2-0.5-0.3-0.8l1.1-0.3c0.1,0,0.2,0.1,0.4,0.1c0.1,0,0.3,0.1,0.3,0.1c0.2-0.1,0.1-0.2,0-0.3l1.4-0.3l-1.6,0.9  c-0.1-0.1-0.1-0.1-0.2-0.1c-0.1,0-0.1,0.1-0.2,0.2c-0.1,0.1-0.2,0-0.3-0.1s-0.3,0-0.3,0.1C47,50.9,47.1,50.9,47,51z M46.9,51.5  C46.9,51.5,46.8,51.6,46.9,51.5C46.8,51.6,46.8,51.6,46.9,51.5L46.9,51.5z M46.4,50c0-0.1,0-0.1,0-0.2H47c0,0,0,0.1,0,0.1  c0,0-0.1,0-0.2,0s-0.1-0.1-0.1-0.1s-0.1,0-0.1,0.1c0,0.1,0.1,0.1,0.1,0.2c0,0,0,0.1,0,0.1c0,0.1,0,0.2,0.1,0.3c0.1,0,0.2,0,0.4-0.1  l-0.7,0.2c0-0.1,0-0.2,0-0.3C46.5,50.2,46.5,50.2,46.4,50z M45.8,50.3c0.1-0.1,0.1-0.2,0.1-0.4c0-0.1,0-0.1-0.1-0.1h0.3  c0,0,0,0.1,0,0.1c-0.1,0.2,0,0.3,0.1,0.3c0,0.1,0,0.2,0.1,0.3l-0.5,0.1c0,0,0,0,0,0C45.8,50.6,45.8,50.4,45.8,50.3z M46.3,49.2  C46.3,49.3,46.3,49.3,46.3,49.2c0,0.1,0,0.1,0,0.2c0,0.1,0,0.1,0,0.2c-0.1,0-0.2,0.1-0.2,0.1h-1.2c0.2-0.1,0.3-0.2,0.5-0.3  c-0.1-0.2-0.3-0.2-0.4-0.1c0-0.1,0-0.2,0-0.3c-0.1,0.1-0.2,0.1-0.4,0.2c0-0.3-0.1-0.6,0-0.9l0.4,0.1c0,0.1,0,0.1,0,0.2c0,0,0,0,0,0  c0,0,0,0,0.1,0c0.1,0,0.2,0,0.4,0c0.1,0,0.1-0.1,0.1-0.1l0.9,0.2C46.4,49,46.3,49.1,46.3,49.2z M44.1,51.4c0-0.1-0.1-0.1-0.1-0.2  l1-0.2c-0.1,0.1-0.2,0.3-0.3,0.4c-0.1,0.1-0.1,0.2-0.2,0.2c-0.1,0-0.2-0.1-0.1-0.2C44.3,51.4,44.2,51.4,44.1,51.4z M43.9,51.1  C43.9,51.1,43.9,51.1,43.9,51.1C43.9,51.1,43.9,51.1,43.9,51.1l-0.6,0.1c0,0-0.1-0.1-0.1-0.1c0,0-0.1,0-0.1,0.1c0,0,0,0-0.1,0  c-0.1-0.5-0.2-1-0.2-1.5h1c0.2,0.2,0.4,0.5,0.4,0.8c0,0.1,0.1,0.2,0.2,0.2s0.2,0,0.3-0.1s0.3-0.1,0.4-0.1c-0.1,0.1-0.1,0.2-0.2,0.2  L43.9,51.1z M42.8,49.7c0-0.1,0-0.3,0-0.4c0.1,0,0.1,0.1,0.2,0.1c0.1,0.1,0.2,0.2,0.4,0.2c0.1,0,0.1,0,0.2,0c0,0,0.1,0,0.1,0.1  L42.8,49.7L42.8,49.7z M50.1,42.5C50,42.5,50,42.5,50.1,42.5c-0.7,0-1.3,0.1-1.8,0.2l-0.9-3.6c0.8-0.2,1.7-0.3,2.6-0.3  c0,0,0.1,0,0.1,0L50.1,42.5z M50.1,43.2C50.2,43.3,50.2,43.3,50.1,43.2c0.1,0.2,0.1,0.3,0,0.3L50.1,43.2z M50,43.9  c-0.1,0.1-0.3,0-0.4-0.1c-0.1-0.1-0.2-0.3-0.4-0.2c0.1,0.1-0.1,0.2-0.1,0.4c0,0.1,0.2,0.2,0.3,0.2s0.3,0.1,0.2,0.3  c0.1-0.1,0.3,0,0.4,0.2c0,0,0,0,0,0l0,1.6c0,0,0,0,0,0c-0.3,0-0.6,0-0.9,0.1L48.6,44c0,0,0,0,0,0c0-0.1,0-0.2-0.1-0.3c0,0,0,0,0,0  l-0.2-0.9c0.6-0.1,1.1-0.2,1.7-0.2c0,0,0,0,0.1,0l0,0.5c0,0,0,0.1,0,0.1l0,0.5C50,43.7,49.9,43.8,50,43.9z M47.8,49.7  c-0.1,0-0.1,0-0.2-0.1c0,0-0.1-0.1-0.1-0.1c0,0-0.1-0.1-0.1-0.1s-0.1,0.1-0.1,0.1c-0.1,0-0.2,0-0.2,0.1c0,0,0,0,0,0.1h-0.1  c0,0,0,0,0,0c0,0,0,0,0,0h-0.7c0-0.1,0.1-0.1,0.2-0.1c0,0-0.1-0.1,0-0.2c0.1,0,0.2-0.1,0.2-0.3c0,0,0-0.1,0-0.1c0,0-0.1,0-0.1,0  s0,0.1,0,0.1c-0.1,0-0.1,0-0.2,0c0-0.1,0-0.2,0.1-0.3l3.2,0.9L47.8,49.7L47.8,49.7z M49.6,49.8l-1.4,0.3C48.1,50,48.1,50,48,49.9  c0,0,0-0.1-0.1-0.1H49.6z M45.8,47.7c-0.1,0-0.1-0.1-0.1-0.1c-0.1-0.1-0.2-0.1-0.3,0c0,0,0,0.1-0.1,0.1c0,0.1-0.1,0.1-0.1,0.2  c-0.1,0.1,0,0.3-0.1,0.4c0,0-0.1,0-0.1,0.1c0,0,0,0,0,0l-0.4-0.1c0-0.1,0.1-0.2,0.1-0.4c0.2-0.3,0.5-0.5,0.7-0.7l0.5,0.3  c0,0-0.1,0-0.1,0.1C45.8,47.6,45.8,47.7,45.8,47.7z M45.9,48.6l-0.2-0.1c0,0,0,0,0,0C45.7,48.6,45.8,48.6,45.9,48.6z M47.4,47.2  c-0.2,0.2-0.4,0.4-0.5,0.7l-0.3-0.2c0,0,0-0.1,0-0.1c0-0.1,0-0.2-0.1-0.2c-0.1-0.1-0.2-0.1-0.2,0c0,0-0.1,0.1-0.1,0.1c0,0,0,0,0,0  l-0.6-0.3c0.1-0.1,0.2-0.1,0.2-0.2c0.2-0.2,0.5-0.5,0.7-0.7L47.4,47.2z M46.5,46.2c0.2-0.2,0.3-0.3,0.6-0.4c0.2-0.1,0.3-0.1,0.5-0.2  l0.6,1.1c-0.3,0.1-0.5,0.3-0.7,0.5L46.5,46.2z M46.9,48l0.1,0.1c0,0.1-0.1,0.1-0.2,0.1C46.8,48.1,46.8,48.1,46.9,48z M46,48.6  c0.2,0-0.1-0.2,0.1-0.4c0.2-0.1,0.3-0.3,0.5-0.4c0,0,0,0,0,0l0.2,0.1c-0.1,0.2-0.2,0.4-0.3,0.6c-0.1,0-0.1,0.1-0.1,0.2c0,0,0,0,0,0  c0,0,0,0,0,0L46,48.6C46,48.6,46,48.6,46,48.6z M46.6,48.8c0.1,0,0.1,0,0.2,0c0-0.1,0-0.3,0.1-0.3c0,0,0.1,0,0.1,0  c0.1,0,0.2-0.1,0.2-0.2l2.4,1.4L46.6,48.8z M47.3,48.1c0-0.1,0-0.1,0-0.2c0-0.1-0.1-0.2-0.2-0.1c0,0,0,0.1,0,0.1l-0.1-0.1  c0.2-0.2,0.3-0.5,0.5-0.7l2.3,2.3L47.3,48.1z M47.5,47.2c0.2-0.2,0.4-0.4,0.7-0.5l1.6,2.8L47.5,47.2z M47.6,45.5  c0.1,0,0.3-0.1,0.4-0.2c0.3-0.1,0.5-0.4,0.6-0.6l0.4,1.5c-0.3,0.1-0.6,0.2-0.8,0.3L47.6,45.5z M48.1,42.9c0,0,0.1,0,0.1,0l0.2,1  c-0.2,0.1-0.4,0.2-0.6,0.2c0-0.2,0.1-0.4,0.3-0.5C48.3,43.3,48.2,43,48.1,42.9z M48.5,44.1l0.1,0.4c-0.2-0.1-0.3-0.2-0.4-0.3  C48.3,44.2,48.4,44.1,48.5,44.1z M48.2,42.8c-0.1,0-0.1,0-0.2,0c-0.1-0.1-0.2-0.1-0.3-0.2c0-0.1,0-0.2-0.1-0.2  c-0.1,0.1-0.3,0.1-0.5,0.1c0.1-0.3,0.2-0.5,0.3-0.8c-0.3,0.1-0.6,0.5-0.6,0.8c-0.2,0.2-0.3,0.5-0.4,0.8l-1.7-3.1  c0.8-0.5,1.7-0.8,2.6-1L48.2,42.8z M46.3,43.4c0,0.1,0,0.1-0.1,0.2c0,0,0,0-0.1,0c-0.2-0.1-0.4,0.2-0.7,0.3C45.4,44,45.3,44,45.2,44  c-0.3,0-0.6,0-0.9-0.1l-1.9-2c0.7-0.7,1.4-1.2,2.2-1.7L46.3,43.4z M45,50.1c-0.2,0.1-0.4,0.1-0.5-0.1c0.1-0.1,0.2-0.1,0.2-0.2h0.7  C45.3,49.9,45.2,50,45,50.1z M49.7,50l-1.2,1.1c-0.1,0-0.2,0-0.3,0c-0.1,0-0.1-0.1-0.2-0.2L49.7,50z M49.8,50l-0.7,1.1c0,0,0,0,0,0  C49,51,48.9,51,48.7,51L49.8,50z M49.8,50.1l-0.5,1.6c0,0,0,0,0,0c-0.1,0-0.2,0-0.2,0c0-0.1,0-0.1,0-0.2c0,0-0.1,0-0.1,0L49.8,50.1z   M48.3,46.6c0.2-0.1,0.5-0.2,0.8-0.3l0.8,3.2L48.3,46.6z M49.1,46.3c0.3-0.1,0.6-0.1,0.9-0.1c0,0,0,0,0,0l-0.1,3.3L49.1,46.3z   M50.1,46.2c0.3,0,0.6,0,0.9,0.1L50,49.4L50.1,46.2z M50.1,46.1l0-1.5c0.1,0.1,0.1,0.2,0.2,0.2c0.1,0,0.3,0,0.5-0.1  c0.2,0,0.4,0,0.5,0.1L51,46.2C50.7,46.1,50.4,46.1,50.1,46.1z M50.7,42.8c0,0.1-0.1,0.2-0.2,0.2s-0.2,0-0.3,0c0,0,0,0-0.1,0l0-0.4  c0.3,0,0.7,0,1,0.1C51,42.7,50.9,42.7,50.7,42.8z M50.1,38.7c0,0-0.1,0-0.1,0c-0.9,0-1.8,0.1-2.7,0.3l-0.9-3.6  c1.1-0.3,2.3-0.4,3.6-0.4c0.1,0,0.1,0,0.2,0L50.1,38.7z M47.2,39.1c-0.9,0.2-1.8,0.6-2.6,1.1l-1.8-3.3c1.1-0.6,2.3-1.1,3.5-1.4  L47.2,39.1z M44.5,40.2c-0.8,0.5-1.6,1-2.3,1.7l-2.6-2.7c0.9-0.9,1.9-1.7,3.1-2.3L44.5,40.2z M44.1,43.9c-0.3,0-0.5-0.1-0.8-0.1  c0,0.1,0.1,0.2,0.1,0.3c-0.5,0-1.1-0.1-1.6-0.1c-0.3,0-0.7-0.1-1-0.2c0.4-0.6,0.9-1.2,1.4-1.7L44.1,43.9z M42.7,49.3  c0,0.1,0,0.3,0,0.4h-1c0,0,0,0,0,0c0,0,0.1,0,0.2-0.1c0.1-0.1,0.1-0.3,0.2-0.4c0.1-0.1,0.2-0.1,0.3-0.1  C42.5,49.2,42.6,49.2,42.7,49.3z M43.2,52C43.2,52,43.2,52,43.2,52c0.2-0.1,0.2-0.4,0.2-0.6c0,0,0,0,0,0l0.6-0.1  c0,0.4,0,0.8-0.2,1.1c0,0.1-0.1,0.1-0.1,0.2c0,0.2,0.4,0.1,0.5-0.1c0.1-0.2,0.2-0.4,0.4-0.4c0,0.2,0.1,0.4,0.1,0.6  c0.3-0.7,0.7-1.3,1.1-1.8l0.6-0.1c0.1,0.3,0.2,0.6,0.3,0.8l-3.1,1.6C43.4,52.8,43.3,52.4,43.2,52z M46.7,51.6c0,0,0,0.1,0.1,0.1  c0,0.1-0.1,0.1-0.1,0.2c-0.1,0.2-0.2,0.4-0.3,0.5c-0.1,0.1-0.1,0.2-0.2,0.4c-0.2,0.2-0.3,0.4-0.6,0.5c-0.2,0.1-0.4,0.3-0.5,0.5  c0,0.1-0.1,0.2-0.1,0.2c-0.1,0.1-0.2,0.2-0.2,0.3c0,0.1-0.1,0.2,0,0.3c0,0,0,0,0.1,0.1l0,0c-0.4-0.4-0.8-0.9-1.1-1.5L46.7,51.6z   M44.8,54.8C44.8,54.8,44.8,54.8,44.8,54.8L44.8,54.8C44.8,54.7,44.8,54.8,44.8,54.8C44.8,54.8,44.8,54.8,44.8,54.8z M44.8,54.9  c0,0.1,0,0.3,0.1,0.3c0,0,0.1,0,0.1,0c0.3,0.3,0.7,0.6,1.1,0.8l-1.9,3.2c-0.8-0.5-1.5-1.1-2.2-1.8l2.7-2.6  C44.8,54.9,44.8,54.9,44.8,54.9z M45.1,55.1c0,0,0.1-0.1,0.1-0.1c0.1-0.1,0.3-0.1,0.4-0.1c0.1,0,0.1-0.1,0.2-0.2  c0.1-0.1,0.2-0.2,0.3-0.2c0.1,0,0.2,0,0.3,0c0.1,0,0.1,0.2,0.1,0.2c0.2,0,0.4,0,0.5-0.1l-0.8,1.4C45.8,55.7,45.5,55.4,45.1,55.1z   M48.6,53.2c0.1-0.1,0.1-0.2,0.1-0.3c0-0.1,0-0.2,0-0.2c0,0,0.1-0.1,0.1-0.1c0,0,0-0.1,0.1-0.2c0-0.2,0.2-0.3,0.3-0.4l-0.4,1.3  C48.8,53.2,48.7,53.2,48.6,53.2z M49.4,51.9C49.4,51.9,49.4,51.9,49.4,51.9c0.1-0.1,0.1-0.1,0-0.1l0.5-1.7l-0.1,3.3  c-0.3,0-0.6-0.1-0.9-0.1L49.4,51.9z M50.8,52.8c0,0,0.1,0,0.1,0c0.2,0,0.4-0.1,0.2-0.3c0-0.1-0.1-0.1,0-0.2c0,0,0.1,0,0.1-0.1  c0.1,0,0-0.1,0-0.2c-0.1,0-0.1,0-0.2,0c-0.1,0-0.1,0.1-0.1,0.2c0,0,0,0,0,0.1c0,0-0.1,0-0.1,0l-0.6-2.2l1.6,2.9  c-0.3,0.1-0.5,0.2-0.8,0.3L50.8,52.8z M51,46.3c0.3,0.1,0.5,0.2,0.8,0.3l-1.7,2.8L51,46.3z M51.9,46.7c0.2,0.2,0.5,0.3,0.7,0.5  l-2.4,2.3L51.9,46.7z M52.6,47.3c0.2,0.2,0.4,0.4,0.5,0.7l-2.9,1.6L52.6,47.3z M53.2,48.1c0,0.1,0.1,0.2,0.1,0.3  c-0.1,0-0.2,0.1-0.3,0.1c0,0.2,0.1,0.3,0.1,0.5l-2.8,0.6L53.2,48.1z M53.1,49.1C53.1,49.1,53.1,49.1,53.1,49.1  c0.2,0.2,0.3,0.4,0.5,0.5c0,0,0,0.1,0,0.1h-3.3L53.1,49.1z M53.4,46.9c0,0.1,0,0.1,0,0.2c-0.1,0-0.2,0-0.3,0c0,0.3,0.4,0.5,0.6,0.7  L53.2,48c-0.1-0.3-0.3-0.5-0.5-0.7l0.6-0.6c0.1,0,0.3,0,0.4,0.1C53.7,46.9,53.5,46.9,53.4,46.9z M51.9,46.6  c-0.3-0.1-0.5-0.3-0.8-0.4l0.4-1.3c0,0,0.1,0,0.1,0.1c-0.1,0.1,0,0.2,0.1,0.3c0.1,0.1,0.2,0.1,0.2,0.2c0,0,0,0.1,0,0.1  c0,0.1,0.1,0.1,0.2,0.1c0.1,0,0.2,0.1,0.2,0.2L51.9,46.6z M52,42.5C52,42.5,52,42.5,52,42.5L52,42.7c0,0,0,0-0.1,0  c0,0-0.1-0.1-0.1-0.1c0,0-0.1,0-0.2,0c-0.1,0-0.2,0-0.2,0c-0.4-0.1-0.8-0.1-1.3-0.1l0.1-3.7c1,0,1.9,0.2,2.8,0.4l-0.9,3.1  C52.1,42.4,52.1,42.4,52,42.5z M50.2,34.9c-0.1,0-0.1,0-0.2,0c-1.2,0-2.5,0.2-3.6,0.4l-0.9-3.4c1.4-0.4,2.9-0.5,4.5-0.5  c0.1,0,0.2,0,0.3,0L50.2,34.9z M46.3,35.3c-1.3,0.3-2.5,0.8-3.6,1.4L41,33.7c1.4-0.8,2.9-1.4,4.4-1.8L46.3,35.3z M42.7,36.8  c-1.1,0.6-2.2,1.4-3.1,2.3l-2.5-2.5c1.1-1.1,2.4-2.1,3.8-2.9L42.7,36.8z M39.5,39.2c-0.9,0.9-1.7,1.9-2.4,3l-3-1.8  c0.8-1.4,1.8-2.6,2.9-3.8L39.5,39.2z M37.2,42.3c0.7-1.1,1.4-2.1,2.4-3l2.6,2.7c-0.5,0.5-1,1.1-1.4,1.7c-0.3-0.1-0.5-0.2-0.7-0.4  c-0.1-0.1-0.2-0.3-0.2-0.4c-0.6-0.1-1.2-0.2-1.7,0L37.2,42.3z M40.4,54.3c0.2,0,0.4,0.1,0.4-0.1c0.1-0.2-0.3-0.3-0.3-0.6  c0.1-0.1,0.3,0,0.4,0.1s0.1,0.3,0.2,0.4c0,0.1,0.1,0.2,0.1,0.3l-0.8,0.4c0,0,0-0.1-0.1-0.1C40.3,54.6,40.3,54.4,40.4,54.3z   M40.6,55.2c0-0.1,0-0.2-0.1-0.3l0.8-0.4c0.1,0.1,0.1,0.2,0.2,0.3c0.1,0,0.3,0,0.4,0c0,0.1-0.1,0.2-0.3,0.2s-0.3,0-0.3,0.1  c-0.1,0-0.2-0.1-0.3-0.1c-0.1,0-0.2,0.1-0.1,0.2c0,0,0,0.1,0.1,0.1c0.1,0.1,0.1,0.3,0,0.5c0.2,0,0.3,0.2,0.2,0.4c0.1,0,0.1,0,0.2,0  c0-0.2,0.4-0.3,0.3-0.5c0,0-0.1-0.1-0.1-0.1c-0.1-0.1,0-0.3,0.1-0.3c0.1-0.1,0.2-0.1,0.4-0.1c0.2-0.1,0.3-0.3,0.3-0.5  c0-0.1,0-0.2,0-0.3c0-0.2,0-0.4,0.2-0.5l1-0.5c0.3,0.5,0.7,1,1.1,1.5L42,57.3c-0.6-0.7-1.2-1.4-1.6-2.2  C40.4,55.2,40.5,55.2,40.6,55.2z M44.2,59.2l-2,3.2c-1.1-0.7-2.1-1.5-3-2.4l2.7-2.6C42.6,58.1,43.3,58.7,44.2,59.2z M44.2,59.3  c0.8,0.5,1.7,0.9,2.6,1.2l-1,3.6c-1.2-0.4-2.4-0.9-3.5-1.6L44.2,59.3z M44.3,59.2l1.9-3.2c0.5,0.3,1.1,0.6,1.7,0.8l-1,3.6  C45.9,60.1,45.1,59.7,44.3,59.2z M48,56.7l0.2-0.8c0,0,0,0,0,0c0.1,0,0.1-0.1,0.1-0.1s0-0.1,0-0.2c0,0,0-0.1,0-0.1c0,0,0,0,0,0  l0.6-2.1c0.3,0.1,0.6,0.1,0.9,0.1L49.8,57C49.2,57,48.6,56.9,48,56.7z M52.1,54c-0.1,0-0.1,0.1-0.2,0.1c-0.2,0.2-0.3,0.4-0.5,0.6  c0,0.1-0.1,0.2-0.1,0.3l-0.4-1.7c0.3-0.1,0.6-0.2,0.8-0.3l0.5,0.9C52.2,54,52.2,54,52.1,54z M50.2,50l2.3,2.4  c-0.2,0.2-0.4,0.4-0.7,0.5L50.2,50z M50.2,50l2.9,1.7c-0.2,0.3-0.3,0.5-0.5,0.7L50.2,50z M50.3,49.9l3.2,0.9  c-0.1,0.3-0.2,0.6-0.3,0.8L50.3,49.9z M50.3,49.8h3.3c0,0.3,0,0.6-0.1,0.9L50.3,49.8z M53.7,49.8L53.7,49.8c0.1,0.1,0.1,0.2,0.1,0.3  c0-0.1,0.2,0,0.2,0c0.1,0.1,0.1,0.2,0.1,0.3c0,0.1,0.1,0.2,0.2,0.1c0,0.1,0,0.2,0,0.4l-0.7-0.2C53.7,50.4,53.7,50.1,53.7,49.8z   M53.8,43.3c-0.1-0.1-0.1-0.2-0.2-0.2c-0.1-0.1-0.2-0.1-0.3,0c-0.1,0.1-0.1,0.1-0.2,0.1c-0.2-0.1-0.4-0.2-0.7-0.3  c0-0.1,0.1-0.1,0.2-0.1c0-0.2,0.2-0.3,0.3-0.4c0.2-0.1,0.3-0.1,0.5-0.2c0.3-0.2,0.3-0.7,0.2-1.1c-0.5,0.3-0.9,0.7-1.3,1.1l0.9-3  c0.9,0.3,1.8,0.7,2.6,1.1L53.8,43.3C53.8,43.3,53.8,43.3,53.8,43.3z M53,39.1c-0.9-0.3-1.8-0.4-2.8-0.4l0.1-3.7  c1.3,0,2.6,0.2,3.8,0.6L53,39.1z M50.3,34.9l0.1-3.5c1.6,0,3.2,0.3,4.7,0.7l-1,3.4C52.9,35.1,51.6,34.9,50.3,34.9z M50.3,31.3  c-0.1,0-0.2,0-0.3,0c-1.5,0-3,0.2-4.5,0.5l-0.9-3.7c1.8-0.4,3.6-0.7,5.4-0.7c0.1,0,0.2,0,0.4,0L50.3,31.3z M45.4,31.8  c-1.6,0.4-3.1,1-4.5,1.8l-1.9-3.3c1.7-1,3.5-1.7,5.4-2.1L45.4,31.8z M40.9,33.7c-1.4,0.8-2.7,1.8-3.8,2.9l-2.7-2.7  c1.4-1.4,3-2.5,4.6-3.5L40.9,33.7z M37,36.6c-1.1,1.1-2.1,2.4-3,3.8l-3.3-1.9c0.9-1.6,2.1-3.1,3.5-4.4c0,0,0.1-0.1,0.1-0.1L37,36.6z   M34,40.5c-0.8,1.4-1.4,2.9-1.9,4.4l-3.7-1c0.5-1.9,1.3-3.7,2.3-5.4L34,40.5z M32.3,48c0.3-0.4,0.9-0.5,1.5-0.4c0.1,0,0.2,0,0.3,0.1  c0,0,0.1,0.1,0.1,0.2c0.1,0.1,0.2,0.1,0.3,0.2c0.4,0.2,0.5,0.8,0.4,1.2c0,0.1-0.1,0.3-0.1,0.4h-2c0,0,0,0,0,0  c-0.1-0.1-0.3-0.1-0.5-0.1c-0.2-0.1-0.3-0.4-0.3-0.6C32.1,48.6,32.1,48.3,32.3,48z M35.4,52c0.2-0.1,0.4,0,0.5,0.2  c0.1,0.1,0.2,0.3,0.3,0.5c0,0.1,0.1,0.2,0.2,0.2l-0.8,0.2C35.4,52.7,35.4,52.4,35.4,52C35.3,52,35.3,52,35.4,52z M36.4,53  c0,0,0.1,0.1,0.1,0.1c0.1,0.1,0.3,0.2,0.5,0.1c0,0,0.1-0.1,0.1-0.1c0.1-0.1,0.3-0.2,0.5-0.1c0.1,0.1,0.2,0.2,0.3,0.2  c0.1,0,0.1,0,0.2,0c0.3,0.1,0.5,0.3,0.5,0.6c0,0,0.1,0,0.1,0c0-0.1,0-0.2,0-0.2c0.2,0,0.4,0.1,0.5,0.3c0,0.1,0.1,0.1,0.1,0.2  c0.1,0.1,0.2,0.1,0.2,0.1c0.1,0.1,0.1,0.2,0,0.2c-0.1,0-0.2-0.1-0.3-0.1c0,0.1,0,0.2,0,0.3c0.2,0,0.3,0.1,0.4,0.3  c0.1-0.1,0.2,0,0.3,0.1c0,0,0,0,0,0l-3.3,1.8c-0.6-1.1-1.1-2.3-1.3-3.6L36.4,53z M40.2,55.1c0.5,0.8,1,1.6,1.7,2.3l-2.7,2.6  c-0.9-0.9-1.6-2-2.2-3.1L40.2,55.1z M42.2,62.5l-1.8,3c-1.4-0.8-2.6-1.9-3.7-3l2.6-2.4C40.1,61,41.1,61.8,42.2,62.5z M45.8,64.1  c0.5,0.2,1.1,0.3,1.6,0.4c-0.1,0.1-0.4,0.2-0.5,0.2c-0.6,0.1-1,0.5-1.5,0.8L45.8,64.1z M49.6,70.7c0.2,0,0.4-0.1,0.6-0.1  c0.5-0.1,0.9-0.2,1.4-0.2c0.1,0,0.2,0,0.2,0.1c0.1,0,0.1,0.1,0.1,0.2c0.3,0.3,0.7,0,1.1,0.1c0.4,0,0.8,0.6,0.6,1c0,0,0,0,0,0  c-1.2,0.2-2.4,0.3-3.7,0.3c-0.1,0-0.3,0-0.4,0L49.6,70.7z M52.6,61c-0.1,0-0.1-0.1-0.1-0.2c0-0.1,0.1-0.2,0.2-0.2l0.1,0.5  C52.7,61.1,52.7,61,52.6,61z M52.4,58.2c-0.1,0.1-0.1,0.1-0.1,0.2c0,0-0.1,0.1-0.1,0.1L52.1,58c0.1-0.2,0.2-0.4,0.2-0.6  c0-0.1,0-0.2,0-0.2c0-0.1,0.1-0.1,0.1-0.2c0-0.1,0-0.2,0-0.2c-0.1,0-0.1,0-0.2-0.1c0.1,0,0.3-0.1,0.4-0.2c0,0,0,0.1,0.1,0.1  c0.1,0.1,0.2,0.1,0.3,0c0,0.2,0,0.4-0.1,0.6c0,0.2,0,0.5-0.1,0.7c0,0,0,0.1,0,0.1C52.8,58.3,52.6,58.1,52.4,58.2z M53,54.5  c0.3-0.1,0.6-0.2,0.7-0.5c-0.4,0.1-0.8,0.1-1.2,0c0,0-0.1,0-0.1,0l-0.5-1c0.3-0.2,0.5-0.3,0.7-0.5l1.5,1.5c-0.1,0.1-0.2,0.1-0.3,0.1  c0,0.2,0,0.4,0,0.6C53.5,54.8,53.2,54.7,53,54.5z M53.2,51.6c0.1-0.3,0.3-0.5,0.3-0.8l0.7,0.2c0,0,0,0,0,0c-0.2,0-0.4,0-0.5,0.2  c0.2,0,0.3,0.2,0.3,0.3c0.1,0,0.1,0.2,0.3,0.3c0.1,0.1,0.2,0,0.4-0.1c0.1,0,0.3,0.1,0.2,0.2c-0.1,0-0.2,0.1-0.3,0.2  c-0.1,0.1-0.1,0.2-0.2,0.2L53.2,51.6z M55.7,40.3c-0.8-0.5-1.7-0.9-2.6-1.1l1-3.6c1.2,0.4,2.4,0.9,3.5,1.5L55.7,40.3z M54.2,35.5  l1-3.4c1.6,0.5,3,1.1,4.4,1.9l-1.8,3C56.6,36.4,55.4,35.8,54.2,35.5z M59.6,34.1c1.4,0.8,2.6,1.9,3.7,3l-2.6,2.4  c-0.9-0.9-1.9-1.7-3-2.4L59.6,34.1z M63.4,37.1c0.9,0.9,1.6,1.9,2.3,3c0,0,0,0,0,0c0,0-0.1,0-0.1,0c-0.1,0-0.3,0-0.4,0.1  c0,0.1,0,0.2,0,0.2c0,0.1,0.1,0.1,0.2,0.1l-0.1,0c0.1,0,0.3,0,0.4-0.1c0,0,0,0,0.1,0c0,0,0-0.1,0-0.2c0,0,0,0,0,0c0,0,0,0,0.1,0  c0.1,0.2,0.3,0.5,0.4,0.7l-2,1c-0.3-0.2-0.7-0.3-1-0.3c-0.2,0-0.4,0-0.6,0c-0.5-0.8-1.1-1.5-1.7-2.2L63.4,37.1z M68.9,40.7  c0.2,0,0.5,0.1,0.6,0.3c0,0.1,0,0.1,0.1,0.2c0.1,0.2,0.2,0.3,0.4,0.3c0.1,0,0.1,0,0.2,0c0.1,0.1,0,0.1,0,0.2c0,0.2,0.3,0.3,0.4,0.1  c0,0.1,0,0.2,0,0.3c0,0.2,0.2,0.3,0.4,0.3c0,0,0.1,0,0.1,0c0.2,0.5,0.3,1,0.5,1.6c-0.1,0.2-0.3,0.3-0.4,0.5  c-0.2,0.1-0.4,0.2-0.6,0.3c0,0-0.1,0.1-0.1,0.1l-1.3,0.3c0.1-0.3,0.3-0.5,0.5-0.7c-0.4-0.2-0.6-0.6-0.9-0.8  c-0.3-0.3-0.8-0.5-1.1-0.2c-0.1,0.1-0.1,0.2-0.2,0.4c-0.3-1-0.7-1.9-1.2-2.8l2.8-1.5c0,0.1-0.1,0.1-0.1,0.1  c-0.2,0.1-0.3,0.1-0.5,0.2C68.2,40.3,68.4,40.6,68.9,40.7z M71.1,47.5c0.3-0.5,0.6-1,1-1.4c0.2,1.2,0.3,2.4,0.3,3.7h-3.8  c0-0.5,0-0.9-0.1-1.4c0,0,0,0,0,0c0,0,0-0.1,0-0.1c0-0.3-0.1-0.6-0.1-0.9c0.1-0.3,0.4-0.5,0.7-0.4c0.1,0,0.1,0.1,0.2,0.1  c0.1,0,0.1-0.1,0.2-0.1c0.2-0.2,0.6,0,0.8-0.2c0.1-0.1,0.1-0.2,0.1-0.2c0.2-0.5,0.8-0.6,1-1c0-0.1,0-0.2,0.1-0.3s0.2-0.1,0.3,0  c-0.3,0.7-0.6,1.4-0.8,2.1C70.9,47.3,70.9,47.6,71.1,47.5z M68.4,49.7h-1.4c0-0.3,0.1-0.6,0.2-0.9c0.2-0.4,0.7-0.7,1.1-0.5  C68.4,48.8,68.4,49.3,68.4,49.7z M68.7,46.4c0-0.4,0.2-0.8,0.4-1l1.3-0.3c-0.1,0.2-0.1,0.5-0.3,0.8C69.9,46.4,69.1,46.8,68.7,46.4z   M68.4,49.8c0,1-0.1,2.1-0.3,3.1l0,0c0,0-0.1,0-0.1-0.1c0,0,0-0.1,0-0.1c0-0.1-0.1-0.2-0.1-0.2c-0.1-0.2-0.2-0.4-0.2-0.6  c-0.4-0.4-0.6-1-0.6-1.6c0-0.1,0-0.3,0-0.4C67.1,49.8,68.4,49.8,68.4,49.8z M72.1,45.9c0.1-0.2,0.2-0.3,0.3-0.5  c0.2-0.3,0.4-0.6,0.5-0.9l2.3-0.5c0.4,1.9,0.7,3.8,0.7,5.8h-3.4C72.4,48.5,72.3,47.2,72.1,45.9z M73,44.4c0.1-0.3,0.1-0.7-0.1-1  c-0.3,0-0.6,0-0.8-0.2c-0.1,0.3-0.2,0.5-0.4,0.8c-0.1-0.5-0.3-1-0.4-1.5c0.1,0,0.2,0,0.3,0c0.1-0.1,0-0.2,0-0.3  c-0.1-0.1-0.2-0.2-0.1-0.3c0,0,0.1,0,0.1-0.1c0.1-0.1,0.1-0.3,0.1-0.4c0-0.3-0.1-0.6-0.2-0.8c-0.1-0.1-0.1-0.2-0.1-0.3  c0-0.1,0-0.2-0.1-0.3c-0.1,0-0.2,0-0.2-0.1c-0.1,0-0.1-0.1-0.1-0.2c-0.1-0.1-0.3-0.1-0.5-0.1c-0.1,0-0.3,0-0.4,0.1  c-0.1-0.1-0.1-0.2-0.2-0.3l3-1.6c1.1,2,1.9,4.1,2.4,6.3L73,44.4z M69.9,39.6C69.8,39.6,69.8,39.6,69.9,39.6  c-0.1-0.1-0.2-0.2-0.3-0.3l0.1,0C69.8,39.4,69.8,39.5,69.9,39.6z M63.4,37c-1.1-1.2-2.4-2.2-3.7-3l2-3.3c1.5,0.9,2.9,2,4.1,3.3  c0.1,0.1,0.3,0.3,0.4,0.4L63.4,37z M59.6,34c-1.4-0.8-2.8-1.5-4.4-1.9l1.1-3.7c1.9,0.5,3.7,1.3,5.3,2.3L59.6,34z M55.1,32  c-1.5-0.4-3.1-0.7-4.7-0.7l0.1-3.8c2,0,3.9,0.3,5.7,0.9L55.1,32z M50.4,27.4c-0.1,0-0.2,0-0.4,0c-1.9,0-3.7,0.2-5.4,0.7l-0.8-3.3  c2-0.5,4.1-0.8,6.3-0.8c0.1,0,0.3,0,0.4,0L50.4,27.4z M44.5,28.1c-1.9,0.5-3.7,1.2-5.4,2.2l-1.7-3c2-1.1,4.1-1.9,6.3-2.5L44.5,28.1z   M39,30.3c-1.7,0.9-3.2,2.1-4.7,3.5l-2.4-2.5c1.6-1.6,3.4-3,5.4-4.1L39,30.3z M34.3,33.8c0,0-0.1,0.1-0.1,0.1  c-1.4,1.4-2.5,2.9-3.5,4.5l-3-1.7c1.1-1.9,2.4-3.6,4-5.2c0,0,0.1-0.1,0.1-0.1L34.3,33.8z M30.6,38.5c-1,1.7-1.7,3.5-2.3,5.4L25,43  c0.6-2.2,1.5-4.3,2.6-6.2L30.6,38.5z M28.3,44c-0.5,1.9-0.8,3.8-0.8,5.8h-3.4c0-2.3,0.3-4.5,0.9-6.7L28.3,44z M28.4,44l3.7,1  c-0.3,1.2-0.5,2.5-0.6,3.9c-0.1,0.2-0.3,0.3-0.4,0.5C31,49.5,31,49.6,31,49.7h-3.3C27.7,47.8,27.9,45.8,28.4,44z M31.6,50.4  c0.1-0.1,0.2-0.1,0.4-0.1c0.1,0,0.2,0,0.4,0c0.1,0,0.1,0,0.2,0c0.1,0,0.1,0.1,0.1,0.1c0.1,0.1,0.2,0.1,0.4,0.1  c0-0.2-0.1-0.4-0.1-0.7c0,0,0,0,0-0.1h1.9c0,0.1,0,0.1,0,0.2c0.1,0,0.2,0.1,0.3,0.2c0,0.2,0,0.4,0,0.7c0,0,0,0.1-0.1,0.1  c-0.1,0.1-0.2,0.3-0.1,0.4c0,0,0.1,0.1,0.1,0.1c0,0.1-0.1,0.2-0.2,0.2c-0.2,0.1-0.3,0.2-0.4,0.4C34.3,52,34.2,52,34.1,52  s-0.2,0.1-0.1,0.2c0.3,0.2,0.8,0.2,1.1-0.1c0.1,0,0.1-0.1,0.2-0.1c0.1,0.3,0.1,0.7,0.2,1l-1.9,0.4c0-0.1,0.1-0.1,0.1-0.2  c0-0.1,0-0.3,0-0.4c0-0.3,0-0.7,0-1c0,0,0,0,0-0.1c0,0-0.1,0-0.1,0c-0.1,0-0.1-0.1-0.1-0.2c0-0.2-0.3-0.3-0.3-0.1  c-0.1,0.2,0.1,0.6,0.1,0.8c0,0.2,0.1,0.3,0,0.5c0,0.3-0.3,0.5-0.3,0.8l-0.2,0.1c0-0.1,0-0.2,0-0.2l0,0c0,0,0-0.1-0.1,0  c0,0.1-0.1,0.2-0.2,0.2c0,0.1,0,0.1,0.1,0.2L32,53.9c-0.2-1.1-0.4-2.2-0.4-3.4C31.6,50.5,31.6,50.5,31.6,50.4z M32.6,53.9  C32.6,53.9,32.6,53.9,32.6,53.9c0.1,0,0.1,0,0.1,0l0.3-0.1c0,0.2,0.2,0.4,0.1,0.6c0.1,0,0.2,0,0.2-0.1c0-0.1,0-0.2,0-0.2  c0-0.1,0.1-0.2,0.1-0.3l2-0.5c0.3,1.3,0.8,2.5,1.4,3.6l-3.1,1.7C33,57.1,32.4,55.6,32,54L32.6,53.9z M36.9,56.9  c0.6,1.1,1.4,2.2,2.3,3.1l-2.6,2.4c-1.1-1.2-2-2.5-2.8-3.9L36.9,56.9z M40.3,65.6l-2,3.3c-1.5-0.9-2.8-2-4.1-3.2  c-0.1-0.1-0.3-0.3-0.4-0.4l2.8-2.6C37.7,63.7,38.9,64.7,40.3,65.6z M40.3,65.6c1.3,0.8,2.7,1.5,4.2,1.9c0,0,0,0.1-0.1,0.1  c-0.2,0.3-0.3,0.6-0.1,0.9c0,0,0,0,0,0l-0.8,2.7c-1.9-0.5-3.7-1.3-5.3-2.4L40.3,65.6z M44.6,68.5c0.3,0,0.5,0.2,0.6,0.5  c0,0.1,0,0.3,0.1,0.4c0.1,0.2,0.3,0.4,0.5,0.6c0.3,0.2,0.7,0.5,1.1,0.6c0.5,0.2,1.1,0.3,1.7,0.2c0.3,0,0.7-0.1,1-0.1l0,1.4  c-2,0-3.9-0.3-5.8-0.9L44.6,68.5z M49.6,72.2c0.1,0,0.3,0,0.4,0c1.2,0,2.4-0.1,3.6-0.3c0,0.1-0.1,0.2,0,0.2c0,0.2,0.3,0.3,0.4,0.3  c0.8,0.2,1.5,0.8,1.9,1.5c0.1,0.1,0.1,0.2,0.1,0.3c0,0.2-0.2,0.3-0.3,0.4c-0.1,0.1-0.2,0.2-0.2,0.3c-1.8,0.4-3.6,0.6-5.5,0.6  c-0.2,0-0.3,0-0.5,0L49.6,72.2z M55.3,63.1c-0.2,0-0.4,0.1-0.4,0.3c0,0.1,0,0.1,0,0.2c0,0.1-0.2,0.2-0.2,0.3c0,0,0,0-0.1,0  c-0.2-0.1-0.5-0.1-0.7-0.1c-0.1,0-0.2,0-0.4,0L53,61.5c0,0,0,0,0.1,0c0.2,0.1,0.4,0.3,0.4,0.6c0.2,0,0.2-0.4,0.1-0.5  c0.1,0,0.3-0.1,0.2-0.2c0-0.1-0.1-0.1-0.2,0c-0.2,0-0.4-0.1-0.6-0.2l-0.1-0.6c0.1,0,0.2,0.1,0.3,0.2c0.3,0.2,0.7,0.2,1,0.2  c0,0.1,0,0.3,0.1,0.4c0.1,0.1,0.2,0.1,0.3,0.2c0.1,0.1,0.1,0.2,0.2,0.3c0.1,0.1,0.2,0.2,0.3,0.1c0.1,0,0.1-0.1,0.1-0.1  c0-0.1,0-0.1,0-0.2s0-0.1,0.1-0.1c0-0.1-0.3-0.1-0.3-0.2c0-0.1,0-0.2,0-0.3c0.1-0.1,0.1-0.2,0.2-0.2c0.1,0,0.2,0.1,0.3,0  c0,0,0-0.1,0-0.1s0.1-0.1,0.1,0c0.1,0,0-0.1,0-0.2c0-0.1-0.1-0.1-0.1-0.2c0-0.1,0-0.1,0-0.2c0-0.1,0.1-0.3,0.1-0.4l0.4,0.8  c-0.1,0-0.2,0-0.3,0.1c-0.1,0.1-0.2,0.3-0.1,0.3c0.1,0,0.2,0.1,0.2,0.1c0,0,0.1,0.1,0.1,0.1c0.1,0.2,0.4,0.3,0.6,0.3l0.6,1.1  c-0.3,0.1-0.6,0.2-0.9,0.2C55.9,62.9,55.6,63,55.3,63.1z M56.6,61.4c0,0,0.1,0,0.1-0.1C56.6,61.2,56.8,61,57,61c0.1,0,0.2,0,0.2,0  c0.1,0,0.2-0.1,0.3-0.2s0-0.2,0.1-0.3c0.1,0,0.3-0.1,0.4,0s0.3,0.1,0.3,0.2c0,0.1,0,0.2-0.1,0.3c-0.1,0.2,0,0.4,0.1,0.5  c0,0.1,0.1,0.1,0.1,0.2c0,0.1-0.1,0.2-0.1,0.2c-0.1,0.2-0.3,0.3-0.5,0.4c-0.1,0.1-0.3,0.2-0.5,0.2L56.6,61.4z M57.6,41.7  c-0.2-0.2-0.5-0.4-0.7-0.6c0,0,0,0,0.1-0.1c0,0-0.1,0-0.1,0c-0.3-0.2-0.7-0.5-1-0.7l2-3.2c1.1,0.7,2.1,1.5,3,2.4l-0.6,0.6  c0,0,0,0-0.1-0.1c-0.2-0.2-0.5-0.1-0.7-0.3c-0.2-0.1-0.3-0.3-0.5-0.4c-0.2-0.1-0.4,0-0.6,0.1c-0.3,0.1-0.6,0.3-0.7,0.5  c-0.1,0.1-0.2,0.3-0.3,0.3c-0.1,0,0-0.3-0.2-0.3c-0.1,0-0.9,0.3-0.4,0.4c0.1,0,0.2,0,0.3,0c0.1,0,0.1,0.1,0.2,0.2s0.2,0.1,0.2,0  c0,0,0-0.1,0-0.1c0.1-0.1,0.3,0,0.4-0.1c0,0,0-0.1,0-0.2c0-0.2,0.3-0.3,0.5-0.4c0.2-0.1,0.4-0.1,0.6-0.1c0.2,0,0.4,0.2,0.4,0.4  c0.2,0,0.4,0,0.5,0.1c0,0,0,0,0,0l-1.4,1.4c0,0-0.1,0-0.1,0C58,41.7,57.8,41.7,57.6,41.7z M61.6,59.4c0.3,0,0.6,0,0.8-0.2  c0.2-0.1,0.4-0.4,0.5-0.6c0.1-0.1,0.2-0.3,0.3-0.3c0.1,0,0.1,0,0.2,0c0.1,0,0.1,0,0.1-0.1c0.1-0.1,0.2-0.2,0.3-0.3l0.5,0.3  c0,0,0,0-0.1,0.1c-0.1,0.1-0.2,0-0.3,0c-0.2,0.1-0.2,0.5-0.5,0.5c-0.1,0-0.2-0.2-0.4-0.1c0,0.4-0.1,0.9-0.4,1.2  c-0.1,0-0.1,0.1-0.2,0c0,0,0-0.1,0-0.1c0-0.1-0.2,0-0.3,0c-0.2,0.1-0.5,0.2-0.7,0.2c-0.1,0-0.3-0.1-0.3-0.2  C61.2,59.5,61.5,59.5,61.6,59.4z M67.8,54.9c0.2,0,0.3,0,0.5,0c0,0,0.1,0,0.1-0.1l3.2,0.9c-0.5,1.9-1.3,3.7-2.2,5.4L66,59.1  C66.8,57.8,67.4,56.4,67.8,54.9z M69.4,61.1c1-1.7,1.7-3.5,2.3-5.4l3.3,0.9c-0.6,2.2-1.5,4.3-2.6,6.2L69.4,61.1z M71.7,55.6  c0.5-1.9,0.8-3.8,0.8-5.8h3.4c0,2.3-0.3,4.5-0.9,6.7L71.7,55.6z M75.3,44l3.5-0.8c0.5,2.1,0.7,4.3,0.7,6.6H76  C76,47.8,75.7,45.8,75.3,44z M75.3,43.9c-0.5-2.2-1.3-4.3-2.4-6.3l1.4-0.7c0.1,0.1,0.1,0.2,0.2,0.3c0.3,0.6,0.9,1.1,1.5,1.4  c0-0.2,0.3-0.3,0.5-0.5c0.1-0.1,0.1-0.2,0.1-0.3c0-0.2,0.1-0.3,0.2-0.5c0.9,1.9,1.6,3.9,2.1,5.9L75.3,43.9z M72.8,37.5  c-0.6-1.1-1.2-2.1-1.9-3c0.1,0.1,0.3,0.2,0.5,0.2c0.1,0,0.3,0,0.4,0.1c0.2,0.1,0.2,0.3,0.4,0.5c0.1,0.1,0.3,0.1,0.4,0.1  c0.5,0.1,1.1,0.4,1.4,0.9c0.1,0.1,0.2,0.3,0.3,0.4L72.8,37.5z M62.5,28.1c0.1,0.3,0.1,0.5,0.2,0.8l-1.1,1.7c-1.7-1-3.5-1.8-5.3-2.4  l1-3.3c2.2,0.6,4.2,1.5,6.2,2.7L63,28.4C62.8,28.3,62.6,28.2,62.5,28.1z M56.2,28.2c-1.9-0.5-3.8-0.8-5.8-0.9l0.1-3.4  c2.3,0,4.5,0.4,6.7,1L56.2,28.2z M50.4,23.8c-0.1,0-0.3,0-0.4,0c-2.2,0-4.3,0.3-6.3,0.8l-0.9-3.5c2.3-0.6,4.7-0.9,7.2-0.9  c0.2,0,0.3,0,0.5,0L50.4,23.8z M43.6,24.6c-2.2,0.6-4.3,1.4-6.3,2.5L35.6,24c2.3-1.3,4.7-2.2,7.2-2.9L43.6,24.6z M37.3,27.2  c-1.9,1.1-3.8,2.5-5.4,4.1l-2.5-2.6c1.9-1.8,3.9-3.4,6.2-4.6L37.3,27.2z M31.8,31.3c0,0-0.1,0.1-0.1,0.1c-1.6,1.6-2.9,3.3-4,5.2  l-3.1-1.8c1.3-2.1,2.8-4.1,4.6-5.9c0.1-0.1,0.1-0.1,0.2-0.2L31.8,31.3z M27.6,36.7c-1.1,2-2,4-2.6,6.2L21.5,42  c0.7-2.5,1.7-4.9,3-7.1L27.6,36.7z M24.9,43c-0.6,2.2-0.9,4.4-0.9,6.7h-3.6c0-2.6,0.4-5.2,1-7.6L24.9,43z M24,49.8  c0,2,0.2,3.9,0.6,5.8l-3.5,0.8c-0.5-2.1-0.7-4.3-0.7-6.6H24z M27.8,69.1c0.1,0,0.2-0.1,0.3-0.1c0.4-0.1,0.8,0,1.1,0.2  c0,0,0.1,0.1,0.1,0.1l-0.9,0.9c-0.3-0.3-0.6-0.7-0.9-1C27.6,69,27.7,69.1,27.8,69.1z M31.9,54c0.4,1.6,0.9,3.1,1.7,4.5L32.7,59  c-0.5-0.3-0.8-0.9-0.9-1.5c-0.1-0.6-0.1-1.3-0.4-1.9c-0.2-0.5-0.6-0.9-1.1-1.2c0,0,0,0,0,0L31.9,54z M33.7,65.2L33.7,65.2  c-0.1,0-0.1-0.1-0.1-0.1C33.6,65.1,33.6,65.1,33.7,65.2z M38.3,69c1.7,1,3.5,1.8,5.3,2.4l-1,3.3c-2.2-0.6-4.2-1.6-6.2-2.7L38.3,69z   M43.7,71.4c1.9,0.5,3.8,0.8,5.8,0.9l-0.1,3.4c-2.3,0-4.5-0.4-6.7-1L43.7,71.4z M49.5,75.8c0.2,0,0.3,0,0.5,0c1.9,0,3.7-0.2,5.5-0.6  c-0.1,0.2-0.1,0.4-0.1,0.6c0,0.1,0,0.1,0.1,0.2c0.1,0.1,0.2,0.1,0.2,0.1c0.4,0.1,0.7,0.3,1,0.5l0.5,1.8c-2.3,0.6-4.7,0.9-7.2,0.9  c-0.2,0-0.4,0-0.5,0L49.5,75.8z M56.8,76.8c0.1,0.1,0.2,0.2,0.3,0.2c0.2,0.2,0.2,0.5,0.4,0.7c0.1,0.1,0.1,0.2,0.2,0.3  c0.1,0.1,0.3,0.1,0.4,0.1c0.1,0,0.3,0,0.4,0.1c-0.4,0.1-0.8,0.2-1.3,0.3L56.8,76.8z M58.1,62.5c0.2,0,0.3,0,0.5,0.1  c0-0.1,0-0.3,0-0.4c0,0.2,0.2,0.2,0.3,0.2c0.5,0.1,1.1,0.2,1.6,0.4c0.2,0.2,0.5,0.3,0.8,0.3c0.2,0,0.5-0.1,0.7-0.1  c0.2,0,0.4,0.2,0.6,0.3c-0.2,0.2-0.5,0.4-0.7,0.6c-0.4,0-0.8-0.1-1.3-0.2c0-0.2-0.2-0.3-0.5-0.4C59.4,63.2,58.8,62.9,58.1,62.5z   M62.6,63.4C62.6,63.4,62.7,63.4,62.6,63.4c0.3,0.2,0.6,0.3,0.8,0.1l0.4,0.4c0,0-0.1,0.1-0.1,0.1c-0.3-0.2-0.7-0.1-1.1-0.1  c-0.2,0-0.4,0-0.5,0C62.2,63.7,62.4,63.6,62.6,63.4z M63.4,63.4C63.5,63.4,63.5,63.4,63.4,63.4c0.1-0.1,0.1-0.2,0.1-0.3  c0.1-0.6,0.9-1,0.9-1.7c0,0,0,0,0,0c0.6-0.7,1.1-1.5,1.6-2.3l3.3,1.9c-1,1.6-2.1,3.1-3.5,4.5c0,0-0.1,0.1-0.1,0.1l-0.3-0.3  c0-0.1,0.1-0.3,0.2-0.4c0.1-0.2,0.2-0.4,0.3-0.6c0.1-0.2,0-0.5,0-0.7c-0.1-0.7-0.2-1.3-0.6-1.9c-0.6,0.5-0.7,1.5-1.3,2L63.4,63.4z   M65.6,65.8c-0.2,0.2-0.3,0.3-0.5,0.5c0-0.3,0.1-0.5,0.2-0.8L65.6,65.8z M65,67c0-0.2,0.1-0.4,0.1-0.6c0.2-0.2,0.4-0.4,0.6-0.5  l2.4,2.5c-0.4,0.4-0.9,0.8-1.4,1.2c-0.1-0.2-0.3-0.4-0.5-0.5c-0.3-0.2-0.8-0.3-1-0.6C64.9,68,65,67.5,65,67z M65.7,74.5  c0-0.4,0.1-0.7,0.2-1.1c0.4,0,0.6-0.6,0.3-0.8c-0.1-0.1-0.2-0.1-0.3-0.2c0-0.1,0-0.2,0-0.3c0.2-0.5,0.4-0.9,0.5-1.4  c0-0.1,0.1-0.3,0.2-0.4c0.1-0.1,0.1-0.2,0.2-0.2c0.1-0.1,0.1-0.3,0-0.4c0.5-0.4,0.9-0.8,1.4-1.3l0.4,0.4c0,0.1,0,0.1,0,0.2  c0.1,0,0.2,0,0.3,0.1l0.4,0.4c0,0.2,0,0.4-0.1,0.6c0.1,0,0.2,0.1,0.3,0.2c0.1,0.1,0.3,0.1,0.4,0c0,0,0.1,0,0.1-0.1l0.8,0.8  c-1.6,1.5-3.2,2.9-5.1,4C65.6,74.8,65.6,74.7,65.7,74.5z M70,70.1c0.2-0.1,0.4-0.3,0.4-0.6c0-0.2,0-0.3-0.1-0.5c0,0,0-0.1,0-0.1  c-0.1-0.3-0.2-0.7-0.1-1c0-0.1,0.1-0.2,0.1-0.4c0-0.2-0.2-0.4-0.1-0.6c0-0.1,0.1-0.3,0-0.4c0,0-0.1-0.1-0.1-0.1c0,0,0,0,0,0  c0.9-1.1,1.8-2.3,2.5-3.5l3.1,1.8c-1.3,2.1-2.8,4.1-4.6,5.9c-0.1,0.1-0.1,0.1-0.2,0.2L70,70.1z M72.4,62.9c1.1-2,2-4.1,2.6-6.3  l3.5,0.9c-0.7,2.5-1.7,4.9-3,7.1L72.4,62.9z M75.1,56.5c0.6-2.2,0.9-4.4,0.9-6.7h3.6c0,2.6-0.3,5.2-1,7.7L75.1,56.5z M78.9,43.1  l3.7-0.8c0.6,2.4,0.8,4.9,0.8,7.5h-3.8C79.6,47.5,79.4,45.3,78.9,43.1z M78.9,43c-0.5-2.1-1.2-4.1-2.1-6c0.2-0.3,0.3-0.5,0.6-0.7  c0.1,0.1,0.2,0.1,0.4,0.1c-0.1-0.5-0.2-0.9-0.5-1.3l2.2-1.2c0.5,0.9,0.9,1.8,1.3,2.8c0.7,1.8,1.3,3.6,1.8,5.4L78.9,43z M77.2,35.1  c-0.1-0.2-0.3-0.3-0.5-0.4c-0.1,0-0.2-0.1-0.3-0.1c-0.5-0.3-0.4-1-0.8-1.4c-0.1-0.1-0.3-0.2-0.4-0.3c-0.2-0.1-0.3-0.3-0.4-0.4  c-0.5-0.6-1-1.3-1.5-1.9c-0.2-0.3-0.5-0.6-0.7-1c-0.2-0.2-0.3-0.5-0.4-0.7l2.2-2.1c2,2.1,3.7,4.5,5.1,7.1L77.2,35.1z M72.1,28.8  c-0.1-0.2-0.1-0.4-0.2-0.6c0-0.1,0-0.3-0.1-0.4c-0.2-0.4-0.7-0.5-1.2-0.5c0-0.1,0.1-0.3,0.3-0.2c-0.1-0.2-0.3-0.3-0.6-0.3  c0.3-0.3,0.1-0.8-0.2-1.2s-0.6-0.6-0.9-0.9c-0.1-0.1-0.1-0.2-0.1-0.2c-0.1-0.1-0.2-0.2-0.3-0.3c-0.7-0.5-1.5-1-2.2-1.4l0.9-1.4  c2.2,1.4,4.3,3,6.2,4.9c0.2,0.2,0.4,0.4,0.6,0.6L72.1,28.8z M66.9,29c0.1,0.1,0.2,0.2,0.3,0.3c0.2,0.2,0.4,0.4,0.5,0.6  c0.2,0.2,0.4,0.5,0.4,0.7c0,0.2,0,0.4-0.2,0.5c-0.7-0.6-1.4-1.3-2.1-1.8C66.2,29.1,66.5,28.8,66.9,29z M67.9,31.2  c-0.1,0-0.1,0.1-0.2,0.1c0.2,0.4,0.5,0.7,0.8,1l-1.6,1.5c-0.1-0.1-0.2-0.1-0.2-0.2c-0.1-0.2-0.1-0.4-0.2-0.6  c-0.1-0.2-0.3-0.4-0.4-0.5s-0.2-0.4-0.1-0.6c0.2,0.1,0.4,0.2,0.5,0.3c0.1-0.1,0.1-0.3,0-0.4c-0.1-0.1-0.3-0.2-0.4-0.2  c-0.1,0-0.1,0-0.2-0.1c0,0-0.1-0.1-0.1-0.1c-0.2-0.3-0.4-0.6-0.6-0.8c-0.2-0.2-0.5-0.5-0.9-0.5c-0.2,0-0.5,0.1-0.6-0.1  c0-0.1-0.1-0.1-0.1-0.2c-0.1-0.4-0.3-0.8-0.7-1.1l0.5-0.7c0.6,0.4,1.2,0.8,1.7,1.2c0,0,0,0.1,0,0.1c0,0.2,0,0.4,0,0.5  c0.2,0,0.4-0.1,0.6-0.2C66.6,29.9,67.3,30.5,67.9,31.2z M57.2,24.9c-2.2-0.6-4.4-1-6.7-1l0.1-3.6c2.6,0,5.2,0.4,7.6,1.1L57.2,24.9z   M50.5,20.2c-0.2,0-0.3,0-0.5,0c-2.5,0-4.9,0.3-7.2,0.9l-0.9-3.6c2.6-0.7,5.3-1,8.1-1c0.2,0,0.4,0,0.6,0L50.5,20.2z M42.7,21.1  c-2.5,0.6-4.9,1.6-7.2,2.9l-1.8-3.3c1.1-0.6,2.2-1.1,3.3-1.6c1.6-0.7,3.2-1.2,4.8-1.6L42.7,21.1z M35.5,24c-2.2,1.3-4.3,2.8-6.2,4.7  l-2.6-2.7c2.1-2.1,4.4-3.8,7-5.2L35.5,24z M29.2,28.7c-0.1,0.1-0.1,0.1-0.2,0.2c-1.8,1.8-3.3,3.8-4.6,5.9l-3.2-1.9  c1.4-2.4,3.2-4.7,5.2-6.7c0.1-0.1,0.1-0.1,0.2-0.2L29.2,28.7z M24.4,34.8c-1.3,2.2-2.3,4.6-3,7.1l-3.6-1c0.4-1.4,0.9-2.8,1.5-4.2  c0.6-1.3,1.2-2.6,1.9-3.9L24.4,34.8z M21.4,42.1c-0.7,2.5-1,5-1,7.7h-3.8c0-3,0.4-5.9,1.2-8.7L21.4,42.1z M20.4,49.8  c0,2.2,0.3,4.5,0.7,6.6l-3.7,0.8c-0.6-2.4-0.8-4.9-0.8-7.4H20.4z M21.1,56.5c0.2,0.9,0.5,1.9,0.8,2.8c-0.3,0-0.6,0-0.9,0.1  c-0.1,0-0.2,0.1-0.2,0.1c-0.2,0-0.3-0.3-0.5-0.3c-0.3-0.1-0.6,0.1-0.8,0.2c-0.5,0.2-1,0.2-1.5,0c-0.2-0.6-0.4-1.3-0.5-2L21.1,56.5z   M19.6,63.6c0.2,0.2,0.7,0.2,0.9-0.1c0.1,0.6,0.6,1.1,1,1.5l-1,0.5c-0.4-0.7-0.7-1.4-1.1-2.2C19.5,63.4,19.6,63.5,19.6,63.6z   M21.6,65.1c0.1,0.1,0.2,0.2,0.2,0.2c0.3,0.3,0.7,0.6,1,0.9c0.2,0.2,0.4,0.4,0.6,0.5c0.4,0.3,1,0.6,1.3,1c0.1,0.1,0.1,0.2,0.2,0.3  c0.1,0.1,0.2,0.1,0.3,0.1c0.7,0.3,1.5,0.5,2.2,0.8c0.3,0.4,0.7,0.8,1,1.1l-2.7,2.6c-2-2.1-3.7-4.5-5.1-7.1L21.6,65.1z M28.5,70.2  c0.2,0.2,0.4,0.4,0.6,0.6c1.7,1.7,3.5,3.1,5.4,4.3l-2,3.2c-2.2-1.4-4.3-3-6.1-4.8c-0.2-0.2-0.4-0.4-0.6-0.7L28.5,70.2z M29.1,70.7  c-0.2-0.2-0.4-0.4-0.6-0.6l0.9-0.9c0.2,0.2,0.5,0.4,0.7,0.6c0.5,0.4,1.2,0.8,1.8,0.8c0.6,0,1.2-0.2,1.6-0.7c0.9,0.7,1.8,1.4,2.8,2  L34.5,75C32.6,73.8,30.8,72.4,29.1,70.7z M36.5,72c1.9,1.2,4,2.1,6.2,2.7l-1,3.5c-2.5-0.7-4.9-1.8-7.1-3.1L36.5,72z M42.8,74.7  c2.2,0.6,4.4,1,6.7,1l-0.1,3.6c-2.6-0.1-5.2-0.4-7.6-1.2L42.8,74.7z M49.5,79.4c0.2,0,0.4,0,0.5,0c2.5,0,4.9-0.3,7.2-0.9l0.9,3.6  c-2.6,0.7-5.3,1-8.1,1c-0.2,0-0.4,0-0.6,0L49.5,79.4z M57.3,78.6c0.5-0.1,0.9-0.2,1.4-0.4c0.3,0.1,0.6,0.3,0.8,0.5  c0.1,0.1,0.2,0.2,0.4,0.3c0.1,0,0.1,0,0.2,0c0.9-0.2,1.8-0.6,2.6-1.1c0.4-0.2,0.7-0.5,1.1-0.7c0,0,0.1,0,0.1-0.1  c0.3-0.2,0.7-0.5,0.9-0.7l1.5,2.7c-1.1,0.6-2.2,1.1-3.3,1.6c-1.6,0.7-3.2,1.2-4.8,1.6L57.3,78.6z M64.9,76.2  c0.3-0.3,0.5-0.6,0.6-0.9c0-0.1,0.1-0.2,0.1-0.3c1.8-1.1,3.6-2.5,5.1-4l2.6,2.7c-2.1,2.1-4.4,3.8-7,5.3L64.9,76.2z M70.8,70.9  c0.1-0.1,0.1-0.1,0.2-0.2c1.8-1.8,3.4-3.8,4.6-6l3.2,1.9c-1.4,2.4-3.2,4.7-5.2,6.7c-0.1,0.1-0.1,0.1-0.2,0.2L70.8,70.9z M75.6,64.7  c1.3-2.2,2.3-4.6,3-7.2l3.6,1c-0.4,1.4-0.9,2.9-1.5,4.2c-0.6,1.3-1.2,2.6-1.9,3.8L75.6,64.7z M78.6,57.5c0.7-2.5,1-5.1,1-7.7h3.8  c0,3-0.4,5.9-1.1,8.7L78.6,57.5z M82.6,42.3l3.5-0.8c0.6,2.7,0.9,5.5,0.9,8.3h-3.6C83.5,47.2,83.2,44.7,82.6,42.3z M82.6,42.2  c-0.4-1.8-1-3.6-1.8-5.4c-0.4-1-0.9-1.9-1.3-2.8l3.2-1.7c0.5,1,1,2,1.5,3.1c0.8,1.9,1.5,3.9,1.9,6L82.6,42.2z M79.5,33.9  c-1.4-2.6-3.1-4.9-5.1-7.1l2.6-2.5c2.2,2.4,4.2,5,5.7,7.9L79.5,33.9z M74.3,26.7c-0.2-0.2-0.4-0.4-0.6-0.6c-1.9-1.9-4-3.5-6.2-4.9  l1.9-3.1c2.5,1.5,4.8,3.3,6.9,5.4c0.2,0.2,0.4,0.5,0.7,0.7L74.3,26.7z M67.4,21.2c-1.4-0.8-2.8-1.6-4.4-2.2  c-1.2-0.5-2.4-0.9-3.6-1.3l1-3.4c1.4,0.4,2.7,0.9,4,1.4c1.7,0.7,3.3,1.5,4.8,2.5L67.4,21.2z M63,19c1.5,0.6,3,1.4,4.4,2.2l-0.9,1.4  c0,0,0,0,0,0c-0.1-0.1-0.2-0.1-0.4-0.1c-0.2,0-0.3,0.1-0.5,0.2c-0.2,0.1-0.4,0-0.7,0c-0.5,0-1,0.2-1.4,0.5c0,0,0,0,0,0  c-1.7-0.9-3.4-1.5-5.2-2.1l1-3.6C60.6,18.1,61.8,18.5,63,19z M50.6,16.3c-0.2,0-0.4,0-0.6,0c-2.8,0-5.5,0.3-8.1,1L41,13.8  c2.9-0.7,5.9-1.1,9-1.1c0.2,0,0.4,0,0.6,0L50.6,16.3z M41.8,17.3c-1.6,0.4-3.2,1-4.8,1.6c-1.1,0.5-2.2,1-3.3,1.6l-1.8-3.1  c1.2-0.7,2.4-1.3,3.7-1.8c1.7-0.7,3.5-1.3,5.3-1.8L41.8,17.3z M33.6,20.6c-2.5,1.4-4.9,3.2-7,5.3l-2.5-2.6c2.3-2.3,4.9-4.2,7.8-5.8  L33.6,20.6z M26.5,25.9c-0.1,0.1-0.1,0.1-0.2,0.2c-2,2-3.8,4.3-5.2,6.7L18,31c1.6-2.7,3.5-5.2,5.7-7.4c0.1-0.1,0.1-0.1,0.2-0.2  L26.5,25.9z M21.1,32.9c-0.7,1.2-1.4,2.5-1.9,3.9c-0.6,1.4-1.1,2.8-1.5,4.2L14.2,40c0.4-1.6,1-3.1,1.6-4.7c0.6-1.5,1.3-2.9,2.2-4.3  L21.1,32.9z M17.7,41.1c-0.8,2.8-1.1,5.7-1.2,8.7h-3.6c0-3.3,0.4-6.5,1.3-9.6L17.7,41.1z M16.5,49.8c0,2.5,0.3,5,0.8,7.5l-3.5,0.8  c-0.6-2.7-0.9-5.5-0.9-8.3H16.5z M17.4,57.4c0.1,0.6,0.3,1.3,0.5,1.9c-0.2-0.1-0.5-0.3-0.6-0.5c-0.3-0.2-0.8-0.2-1.1,0.1  c-0.4,0.4-0.4,1-0.4,1.5c0,0.4,0,0.9,0.1,1.3c0.2,0.8,0.6,1.6,1,2.3c0,0.1,0.1,0.2,0.2,0.2c0-0.4,0.1-0.8,0.1-1.2  c0-0.3,0.2-0.6,0.4-0.5c0.1,0,0.2,0.2,0.2,0.3c0.3,0.4,0.6,0.8,1,1.1c0-0.3-0.3-0.8-0.1-1c0.1-0.1,0.3-0.1,0.4,0c0,0,0,0,0,0  c0.4,0.9,0.8,1.8,1.3,2.7l-3.2,1.7c-0.5-1-1-2-1.4-3c-0.8-2-1.5-4-2-6.1L17.4,57.4z M20.5,65.7c1.4,2.6,3.1,5,5.1,7.1L23,75.2  c-2.2-2.4-4.1-5-5.7-7.9L20.5,65.7z M25.7,72.8c0.2,0.2,0.4,0.4,0.6,0.7c1.9,1.9,3.9,3.5,6.2,4.9l-1.9,3.1c-2.5-1.5-4.7-3.3-6.8-5.4  c-0.2-0.2-0.5-0.5-0.7-0.7L25.7,72.8z M32.5,78.4c1.4,0.9,2.9,1.6,4.4,2.3c1.2,0.5,2.4,0.9,3.6,1.3l-1,3.4c-1.3-0.4-2.7-0.9-4-1.4  c-1.7-0.7-3.3-1.6-4.9-2.5L32.5,78.4z M37,80.6c-1.5-0.6-3-1.4-4.4-2.3l2-3.2c2.2,1.4,4.6,2.4,7.1,3.1l-1.1,3.6  C39.4,81.5,38.2,81.1,37,80.6z M41.7,78.3c2.5,0.7,5,1.1,7.7,1.2l-0.1,3.8c-3-0.1-5.8-0.5-8.6-1.3L41.7,78.3z M49.4,83.3  c0.2,0,0.4,0,0.6,0c2.8,0,5.5-0.3,8.1-1l0.9,3.5c-2.9,0.7-5.9,1.1-9,1.1c-0.2,0-0.4,0-0.7,0L49.4,83.3z M58.2,82.3  c1.6-0.4,3.3-1,4.8-1.6c1.1-0.5,2.2-1,3.3-1.6l1.8,3.1c-1.2,0.7-2.4,1.3-3.7,1.8c-1.7,0.7-3.5,1.3-5.4,1.8L58.2,82.3z M66.4,79  c2.5-1.4,4.9-3.2,7-5.3l2.5,2.6c-2.3,2.3-4.9,4.2-7.8,5.8L66.4,79z M73.5,73.7c0.1-0.1,0.1-0.1,0.2-0.2c2-2,3.8-4.3,5.2-6.7l3.1,1.8  c-1.6,2.7-3.5,5.2-5.8,7.5c-0.1,0.1-0.1,0.1-0.2,0.2L73.5,73.7z M78.9,66.7c0.7-1.2,1.4-2.5,1.9-3.8c0.6-1.4,1.1-2.8,1.5-4.2  l3.5,0.9c-0.4,1.6-1,3.2-1.6,4.7c-0.6,1.5-1.3,2.9-2.1,4.3L78.9,66.7z M82.4,58.5c0.8-2.8,1.1-5.7,1.1-8.7h3.6  c0,3.3-0.4,6.5-1.3,9.6L82.4,58.5z M84.4,31.7c0.1,0.3,0,0.5,0,0.8c0,0.6,0.4,1.1,0.8,1.7c1.4,2,2,4.5,2.5,6.9l-1.5,0.4  c-0.5-2-1.1-4-2-6c-0.4-1.1-0.9-2.1-1.5-3.1l1.5-0.8C84.3,31.5,84.4,31.6,84.4,31.7z M78.3,23.6c0.3,0.3,0.6,0.7,0.8,1  c0.1,0.1,0.1,0.2,0.2,0.2c0.1,0.1,0.2,0.1,0.3,0.1c0.4,0.2,0.8,0.4,0.8,0.8c0,0.3-0.1,0.6,0.1,0.8c0.2,0.3,0.6,0.3,0.8,0.5  c0.2,0.2,0.3,0.5,0.4,0.7c0.1,0.1,0.1,0.2,0.2,0.3c0.3,0.4,0.5,0.6,0.8,0.9c0.5,0.7,0.9,1.3,1.4,2c0,0,0.1,0.1,0.1,0.1l-1.5,0.8  c-1.5-2.9-3.5-5.5-5.7-7.9l1-1C78.1,23.4,78.2,23.5,78.3,23.6z M71.7,17.2c-0.1,0.1,0,0.3,0.1,0.4c0.2,0.1,0.3,0.1,0.5,0.2  c0.1,0.1,0.1,0.3,0.2,0.4c0.2,0.3,0.8,0.1,1,0.5c0.2,0.1,0.3,0.4,0.4,0.6c0.4,0.6,0.9,1,1.5,1.4s1,0.9,1.2,1.6  c0,0.2,0.1,0.4,0.2,0.5s0.3,0.3,0.4,0.2c0.1-0.1,0.2-0.2,0.4-0.2c0,0,0.1,0,0.1,0.1c0.1,0.1,0.2,0.3,0.3,0.4l-1,1  c-0.2-0.2-0.4-0.5-0.7-0.7c-2.1-2.1-4.4-3.9-6.9-5.4l1-1.6C70.9,16.6,71.2,17.3,71.7,17.2z M63.6,12.7c0.4,0.2,0.8,0.3,1.2,0.5  c0.1,0.1,0.3,0.1,0.4,0.2c0.1,0.1,0.2,0.2,0.3,0.2c0.3,0.2,0.6,0.1,0.9,0.2c0.2,0.1,0.3,0.1,0.5,0.2c0.6,0.3,1.2,0.8,1.7,1.2  c0.2,0.2,0.4,0.4,0.6,0.5c0.1,0,0.2,0.1,0.3,0.2c0.1,0.1,0.1,0.3,0.2,0.4c0.1,0.1,0.3,0.1,0.5,0.1l-1,1.6c-1.5-0.9-3.2-1.8-4.9-2.5  c-1.3-0.6-2.7-1-4-1.4l0.7-2.5c0.2,0.1,0.3,0.1,0.5,0.2c0.3,0.1,0.6,0.2,0.9,0.4C62.9,12.3,63.3,12.5,63.6,12.7z M61.6,10.1  c0,0,0.1,0,0.2,0C61.7,10.2,61.6,10.2,61.6,10.1L61.6,10.1z M50.8,8.1c0.3,0,0.7,0,1.1,0c0.2,0,0.5,0,0.7,0.1  c0.9,0.1,1.9,0.2,2.8,0.4c0.5,0.1,0.9,0.2,1.4,0.3c0.5,0,1-0.1,1.4,0.2c0.2,0.1,0.2,0.3,0.4,0.4c0.2,0.1,0.4,0,0.6-0.1  c0.3-0.1,0.7-0.2,1-0.1c0.5,0.2,0.8,0.7,1.3,0.8l0,0.1c-0.6,0.1-1.3,0.1-1.9,0c-0.7,0-1.4-0.1-2-0.1c-0.3,0-0.7,0-0.9,0.2  c0.6,0.2,1.2,0.2,1.8,0.4c0.2,0.1,0.5,0.1,0.7,0.2c0.4,0.1,0.8,0.3,1.2,0.4c0.2,0.1,0.5,0.2,0.7,0.3l-0.7,2.5  c-3.1-0.9-6.3-1.4-9.6-1.4L50.8,8.1z M60.3,14.2l-1,3.4c-0.6-0.2-1.2-0.3-1.7-0.5c0-0.1-0.1-0.1-0.2-0.1c-0.1,0-0.2,0-0.2-0.1  c0.1-0.1,0.2-0.1,0.3-0.1c0.1,0,0.2,0,0.2-0.1c0,0,0,0,0,0c-0.1-0.2-0.4-0.3-0.6-0.3c-0.2,0-0.5,0-0.7,0c-0.2,0-0.4,0.1-0.6,0.1  c0,0-0.1,0-0.1,0c0,0,0,0-0.1,0.1c0,0.1-0.1,0.1-0.2,0.1c-1.6-0.3-3.1-0.4-4.7-0.4l0.1-3.6C54,12.8,57.2,13.3,60.3,14.2z M40.7,9  c0.8-0.1,1.6-0.2,2.4-0.5c0.2-0.1,0.3-0.2,0.5-0.2c0.3-0.1,0.7,0,1,0c1.3,0.1,2.6-0.5,3.8-0.3c0.8,0.2,1.6,0.1,2.3,0.1l-0.1,4.6  c-0.2,0-0.4,0-0.6,0c-3.1,0-6.1,0.4-9,1.1l-1.1-4.5C40.1,9.2,40.5,9,40.7,9z M30.5,13.2c0.3-0.4,0.7-0.5,1.1-0.7  c0.9-0.5,1.8-1,2.7-1.2c0.1,0,0.2,0,0.2-0.1c0-0.1,0-0.2,0-0.2c0.1-0.2,0.3-0.2,0.4-0.2c0.4,0,0.7-0.3,1-0.5c1-0.6,2.1-1,3.3-1  c0.1,0,0.3,0,0.4,0l1.1,4.5c-1.8,0.5-3.6,1.1-5.4,1.8c-1.3,0.5-2.5,1.1-3.7,1.8l-2-3.6C30.1,13.6,30.3,13.4,30.5,13.2z M28.8,14.5  c0.3-0.2,0.7-0.4,1-0.7l2,3.6C29,19,26.4,21,24,23.3l-2.6-2.7C23.6,18.3,26.1,16.3,28.8,14.5z M15.2,28.9c0.7-1.2,1.4-2.3,2.1-3.5  c1.2-1.7,2.6-3.3,4-4.7l2.6,2.7c-0.1,0.1-0.1,0.1-0.2,0.2c-2.2,2.2-4.2,4.7-5.8,7.4L15,29.2C15.1,29.1,15.1,29,15.2,28.9z M15,29.3  l2.9,1.7c-0.8,1.4-1.5,2.8-2.2,4.3c-0.6,1.5-1.2,3.1-1.6,4.7l-3.4-0.9C11.3,35.6,13.1,32.4,15,29.3z M9.6,48.9  c0-1.1,0.4-2.2,0.6-3.3c0.4-1.9,0.2-3.8,0.4-5.7c0-0.3,0.1-0.5,0.1-0.8l3.4,0.9c-0.8,3.1-1.3,6.3-1.3,9.6H9.6  C9.6,49.5,9.7,49.2,9.6,48.9z M9.7,55.4c-0.1-1.3-0.2-3-0.2-4c0-0.6,0.1-1.1,0.1-1.6h3.2c0,2.8,0.3,5.6,0.9,8.3l-3.3,0.8  C10.1,57.7,9.8,56.6,9.7,55.4z M13.8,65.1c-1.1-1.1-1-3.1-2.2-4.1c-0.1,0.1-0.2,0.1-0.3,0c0,0.2,0,0.4-0.1,0.5  c-0.2-0.9-0.5-1.7-0.8-2.6l3.3-0.8c0.5,2.1,1.1,4.1,2,6.1c0.4,1,0.9,2.1,1.5,3l-1.5,0.8c-0.1-0.1-0.1-0.3-0.2-0.4  c-0.5-1-1.1-1.9-1.6-2.9C13.9,64.9,13.9,65,13.8,65.1z M18.9,77.1c-0.5-0.4-1.2-0.5-1.4-1.1c-0.1-0.4,0-0.9-0.2-1.2  c-0.2-0.2-0.4-0.3-0.6-0.4c-0.6-0.3-0.8-1-1.1-1.6c-0.4-1-0.7-2-1.1-3c0.2,0,0.5,0.1,0.7,0.1c0-0.2,0-0.5,0.1-0.7  c0.2,0.1,0.4,0.2,0.6,0.2c0.1-0.4,0-0.8-0.1-1.2l1.5-0.8c1.5,2.9,3.4,5.5,5.7,7.9l-3.2,3C19.5,77.9,19.3,77.4,18.9,77.1z M27.9,85.1  c-0.8-0.4-1.5-0.7-2.2-1.2c-0.9-0.6-1.6-1.5-2.5-2.1c-1.3-0.9-2.6-1.8-3.4-3.2c0-0.1-0.1-0.1-0.1-0.2l3.2-3c0.2,0.2,0.5,0.5,0.7,0.7  c2.1,2.1,4.4,3.9,6.8,5.4l-2.3,3.8C28.1,85.2,28,85.2,27.9,85.1z M34.7,87.7c-0.8-0.1-1.7-0.4-2-1.1c-0.1,0.3-0.4,0.4-0.7,0.3  s-0.5-0.3-0.6-0.5c-0.1,0.2-0.4,0.2-0.6,0.1c-0.3-0.1-0.6-0.3-1-0.4c-0.5-0.3-1-0.5-1.5-0.8l2.3-3.8c1.6,1,3.2,1.8,4.9,2.5  c1.3,0.6,2.6,1,4,1.4l-0.9,3C37.3,88.2,36.1,87.9,34.7,87.7z M49.2,89.5c-0.1,0-0.2,0-0.3,0c-1.1,0-2.2,0-3.3-0.2  c-0.2,0-0.4,0-0.5,0c-0.2,0-0.3,0.1-0.5,0.1c-0.6,0.1-1.2-0.4-1.8-0.4c-0.1,0-0.3,0.1-0.4,0.1c-0.3,0-0.7-0.1-1-0.3  c-0.8-0.3-1.7-0.2-2.6-0.3c0,0,0,0-0.1,0l0.9-3c3.1,0.9,6.3,1.4,9.6,1.5L49.2,89.5z M39.6,85.4l1-3.4c2.8,0.8,5.7,1.3,8.7,1.3  l-0.1,3.6C46,86.8,42.8,86.3,39.6,85.4z M54.7,89.3c-0.3-0.1-0.6,0.1-1,0.2c-0.8,0.3-1.6,0.1-2.4,0c-0.4,0-0.9,0-1.3,0  c-0.2,0-0.5,0-0.7,0l0-2.5c0.2,0,0.4,0,0.7,0c3.1,0,6.1-0.4,9-1.1l0.6,2.6C58,89.1,56.3,89.6,54.7,89.3z M67.6,85.3  c-1.1,0.6-2.3,1.1-3.5,1.6c-0.8,0.3-1.5,0.5-2.3,0.8c-0.7,0.2-1.4,0.5-2.1,0.7l-0.6-2.6c1.8-0.5,3.6-1.1,5.4-1.8  c1.3-0.5,2.5-1.1,3.7-1.8l1.2,2.1C68.7,84.7,68.2,85,67.6,85.3z M75.3,80.1c0.1,0.2-0.2,0.4-0.4,0.6c-1.2,0.8-2.4,1.6-3.6,2.4  c-0.6,0.4-1.3,0.8-1.9,1.3l-1.2-2.1c2.8-1.6,5.4-3.6,7.8-5.9l1.5,1.5C76.8,78.6,76,79.3,75.3,80.1z M83.5,69.8  c-1,0.7-1.1,2.1-1.9,2.9c-0.2,0.2-0.4,0.4-0.6,0.6c-0.6,0.6-0.9,1.4-1.3,2c-0.3,0.5-0.8,1-1.2,1.5c-0.3,0.3-0.6,0.7-0.9,1l-1.5-1.5  c0.1-0.1,0.1-0.1,0.2-0.2c2.3-2.3,4.2-4.8,5.8-7.5l1.7,1C83.6,69.6,83.6,69.7,83.5,69.8z M87,63.4c-0.1,0-0.3,0-0.4,0  c-0.8,2.1-1,4.7-2.7,6.1l-1.7-1c0.8-1.4,1.5-2.8,2.1-4.3c0.7-1.5,1.2-3.1,1.6-4.7l2.3,0.6C87.7,61.3,86.7,62.2,87,63.4z M88.5,58.2  c0,0.6-0.1,1.1-0.2,1.6c0,0.1-0.1,0.2-0.1,0.3l-2.3-0.6c0.8-3.1,1.3-6.4,1.3-9.7h1.8c0,0.9,0,1.9-0.1,2.8  C88.7,54.5,88.6,56.3,88.5,58.2z"/></svg>