<svg width="50" height="50" viewBox="0 0 32 32" data-name="Layer 3" xmlns="http://www.w3.org/2000/svg"><title/><path d="M30.06 15.5a.5.5 0 0 0-.5.5 13.52 13.52 0 1 1-1.49-6.14l-1.43-.38a.5.5 0 1 0-.26 1l2.56.68h.13a.5.5 0 0 0 .25-.07.5.5 0 0 0 .23-.3l.67-2.49a.5.5 0 0 0-1-.26l-.31 1.25A14.49 14.49 0 1 0 30.56 16a.5.5 0 0 0-.5-.5"/><path d="M14.31 14.74a4.5 4.5 0 0 0 .32-.58 2.6 2.6 0 0 0 .17-.51 2.2 2.2 0 0 0 0-.45 2.55 2.55 0 0 0-.19-1 2.3 2.3 0 0 0-.54-.79 2.5 2.5 0 0 0-.83-.52 3 3 0 0 0-1.08-.19 2.6 2.6 0 0 0-1 .19 2.6 2.6 0 0 0-.82.53 2.6 2.6 0 0 0-.57.81 2.6 2.6 0 0 0-.22 1h1.05a1.7 1.7 0 0 1 .14-.64 1.4 1.4 0 0 1 .33-.47 1.4 1.4 0 0 1 .48-.28 1.8 1.8 0 0 1 1.2 0 1.5 1.5 0 0 1 .49.3 1.4 1.4 0 0 1 .32.45 1.3 1.3 0 0 1 .12.55 1.6 1.6 0 0 1-.1.54 3 3 0 0 1-.25.5 5 5 0 0 1-.32.46l-.33.4-3.05 3.84v.86h5.21v-1H11l2.77-3.3a6 6 0 0 0 .54-.7m7.93 2.43v-1.01h-1.32v-1.54l-1.15.08v1.46H17.5l3-5.3h-1.25l-3.15 5.39-.01.92h3.68v1.56h-.86v1.01h2.89v-1.01h-.88v-1.56z"/></svg>