<svg width="60" height="60" viewBox="-5.53 0 122.88 122.88" xmlns="http://www.w3.org/2000/svg" xml:space="preserve">
  <path 
    d="M55.72 0c20.87 13.2 39.67 19.47 55.85 17.99 2.84 57.11-18.25 90.84-55.63 104.89C19.84 109.72-1.5 77.42.08 17.11c18.99.99 37.61-3.1 55.64-17.11M20.14 44.81h7.11l4.95 15.83 4.87-15.83h6.9L35.81 66.8h-7.36zm25.53 0h11.29c2.46 0 4.3.58 5.52 1.76 1.22 1.17 1.84 2.84 1.84 4.99 0 2.22-.67 3.96-2 5.21-1.34 1.25-3.37 1.87-6.11 1.87h-3.72v8.16h-6.82zm6.82 9.37h1.66c1.31 0 2.23-.23 2.76-.68.53-.46.79-1.03.79-1.75 0-.69-.23-1.28-.69-1.76s-1.32-.72-2.59-.72h-1.94v4.91zm14.92-9.37h6.35l8.28 12.17V44.81h6.41V66.8h-6.41L73.8 54.72V66.8h-6.39zM55.72 7.04c18.47 11.69 35.13 17.22 49.44 15.93 2.51 50.55-16.18 80.41-49.26 92.87C23.97 104.19 5.06 75.62 6.46 22.23c16.81.88 33.29-2.76 49.26-15.15z" 
    fill="white" 
    fill-rule="evenodd" 
    clip-rule="evenodd"
  />
</svg>